<svg width="60" height="60" viewBox="0 0 60 60" fill="none" xmlns="http://www.w3.org/2000/svg">
<path d="M28.0914 49.4657C26.1813 47.223 22.9929 44.8243 19.905 43.3068C16.787 41.7742 13.8255 40.923 10.463 40.5939C9.80007 40.5296 9.25042 40.4696 9.24164 40.461C9.23307 40.461 9.25021 33.5392 9.2845 25.0985L9.34107 9.75218L9.95324 9.81218C13.7122 10.185 17.9076 11.6053 21.0819 13.5849C23.8176 15.2906 26.6426 17.9246 28.4437 20.4485L28.8969 21.0836V35.661C28.8969 43.6783 28.8626 50.2367 28.8215 50.2355C28.7786 50.2342 28.4506 49.8875 28.0914 49.4657ZM31.2052 35.6242V20.9859L32.0805 19.8163C33.1981 18.3232 35.446 16.0736 36.9325 14.9615C40.9059 11.9876 45.2161 10.3072 50.1645 9.80147L50.7922 9.73718V25.1049V40.473L50.064 40.5416C43.1738 41.1827 37.2004 44.0255 32.5281 48.8863L31.2052 50.2629V35.6242ZM35.4742 49.2677C38.1785 46.7306 41.7586 44.7146 45.3547 43.7027C47.2366 43.1735 49.6838 42.804 51.3084 42.804C52.1601 42.804 52.6326 42.6197 52.8991 42.1822C53.0996 41.8522 53.1018 41.7103 53.1022 29.2578L53.1025 16.6655L53.4793 16.734C53.6863 16.7769 54.274 16.9398 54.785 17.1026L55.7142 17.3983V33.1136C55.7142 41.757 55.6799 48.8289 55.6375 48.8289C55.5946 48.8289 54.9736 48.696 54.2563 48.5332C51.4216 47.8946 49.0871 47.6752 46.0212 47.7579C42.3024 47.8607 39.4123 48.3793 35.9766 49.5665L34.6708 50.0177L35.4742 49.2677ZM24.0233 49.512C22.5965 49.0012 20.2401 48.399 18.6494 48.1393C16.4865 47.7879 14.9943 47.6945 12.3434 47.7536C9.70947 47.8093 8.1163 47.9936 5.94292 48.4869C5.33521 48.624 4.7137 48.7655 4.56177 48.7955L4.28577 48.8555L4.28624 33.0982L4.28675 17.3405L5.46657 16.9976C6.11542 16.809 6.70287 16.6333 6.77191 16.6119C6.87177 16.569 6.89748 19.1362 6.89748 29.19C6.89748 42.9287 6.86748 42.1629 7.45368 42.5482C7.65768 42.681 8.08154 42.741 9.29195 42.8139C14.1025 43.0882 18.667 44.7035 22.3935 47.4519C23.197 48.0446 25.1256 49.6723 25.2361 49.851C25.3132 49.9753 25.2618 49.9625 24.0236 49.5167L24.0233 49.512Z" fill="white"/>
</svg>
