<svg width="116" height="122" viewBox="0 0 116 122" fill="none" xmlns="http://www.w3.org/2000/svg">
<path d="M68.7062 116.8C67.8208 118.364 66.5349 119.665 64.9807 120.567C63.4265 121.47 61.6599 121.943 59.8624 121.938C53.5812 121.937 48.7812 119.562 45.5999 115.387C42.6187 111.462 41.4499 106.45 41.0812 101.706C40.4187 93.1438 42.2562 83.5313 43.6062 77.5313H10.7937C6.66244 77.5313 3.81244 75.1 2.26869 72.0187C0.862439 69.2312 0.387438 65.7437 0.318688 62.2937C0.187438 55.2687 1.75619 46.2688 4.11244 37.5688C6.48744 28.8188 9.74994 19.9875 13.2312 13.2375C14.9562 9.8875 16.8374 6.8625 18.8187 4.59375C20.5687 2.5875 23.3499 0.0625 26.9687 0.0625H105.225C111.069 0.0625 115.937 4.7375 115.937 10.6688V69.325C115.937 73.25 113.756 76.8187 110.325 78.6562M110.325 78.6562C107.887 79.9687 105.494 81.1688 103.15 82.35C98.8999 84.4938 94.8062 86.5563 90.8187 89.0375C84.8312 92.7625 79.9062 96.975 76.7062 102.638L68.7062 116.8" fill="#464646"/>
</svg>
