<svg width="111" height="108" viewBox="0 0 111 108" fill="none" xmlns="http://www.w3.org/2000/svg">
<path d="M72.75 66.5L69.6687 67.0125C69.5944 66.565 69.6183 66.1067 69.7388 65.6694C69.8594 65.2321 70.0737 64.8263 70.3669 64.4801C70.6601 64.134 71.0252 63.8559 71.4367 63.665C71.8482 63.4742 72.2964 63.3752 72.75 63.375V66.5ZM4 66.5V69.625C3.1712 69.625 2.37634 69.2958 1.79029 68.7097C1.20424 68.1237 0.875 67.3288 0.875 66.5H4ZM16.5 0.875H87.5V7.125H16.5V0.875ZM95 69.625H72.75V63.375H95V69.625ZM75.8313 65.9875L80.8687 96.2063L74.7062 97.2375L69.6687 67.0125L75.8313 65.9875ZM71.625 107.125H70.2938V100.875H71.625V107.125ZM52.0875 97.3875L36.3687 73.8L41.5687 70.3312L57.2875 93.9187L52.0875 97.3875ZM28.5625 69.625H4V63.375H28.5625V69.625ZM0.875 66.5V16.5H7.125V66.5H0.875ZM102.825 13.4375L110.325 50.9375L104.2 52.1625L96.7 14.6625L102.825 13.4375ZM36.3687 73.8C35.5127 72.5158 34.3466 71.4629 32.986 70.7346C31.6253 70.0062 30.1058 69.6251 28.5625 69.625V63.375C31.1345 63.375 33.6668 64.0099 35.9346 65.2233C38.2024 66.4368 40.1418 68.1914 41.5687 70.3312L36.3687 73.8ZM80.8687 96.2063C81.093 97.5497 81.0219 98.9258 80.6603 100.239C80.2987 101.552 79.6553 102.771 78.7749 103.81C77.8945 104.849 76.7982 105.684 75.5624 106.257C74.3265 106.829 72.987 107.125 71.625 107.125V100.875C72.0791 100.876 72.5217 100.777 72.934 100.587C73.3463 100.397 73.7121 100.118 74.006 99.7722C74.2999 99.426 74.5148 99.0199 74.6357 98.5821C74.7567 98.1443 74.7807 97.6855 74.7062 97.2375L80.8687 96.2063ZM95 63.375C96.387 63.3751 97.7568 63.0674 99.0105 62.4742C100.264 61.8809 101.371 61.0169 102.25 59.9443C103.13 58.8718 103.76 57.6174 104.096 56.2718C104.432 54.9261 104.472 53.5226 104.2 52.1625L110.325 50.9375C110.778 53.2035 110.716 55.5417 110.157 57.7837C109.597 60.0258 108.547 62.1157 107.083 63.9031C105.618 65.6905 103.775 67.1308 101.687 68.1203C99.5988 69.1097 97.3171 69.6236 95.0063 69.625L95 63.375ZM87.5 0.875C91.113 0.874292 94.6145 2.12567 97.4087 4.41615C100.203 6.70662 102.117 9.89461 102.825 13.4375L96.7 14.6625C96.275 12.5359 95.1258 10.6225 93.4483 9.2481C91.7708 7.87372 89.6686 7.12342 87.5 7.125V0.875ZM70.2875 107.125C66.6857 107.126 63.1393 106.238 59.9633 104.539C56.7872 102.841 54.0797 100.384 52.0812 97.3875L57.2812 93.9187C58.7082 96.0586 60.6414 97.8132 62.9092 99.0267C65.1769 100.24 67.7092 100.875 70.2812 100.875L70.2875 107.125ZM16.5 7.125C14.0136 7.125 11.629 8.11272 9.87087 9.87087C8.11272 11.629 7.125 14.0136 7.125 16.5H0.875C0.875 12.356 2.5212 8.38171 5.45146 5.45146C8.38171 2.5212 12.356 0.875 16.5 0.875V7.125Z" fill="#464646"/>
<path d="M29 66.5V4Z" fill="#464646"/>
<path d="M29 66.5V4" stroke="#464646" stroke-width="6.25"/>
</svg>
