<svg width="685" height="666" viewBox="0 0 685 666" fill="none" xmlns="http://www.w3.org/2000/svg">
<rect x="3" y="12" width="669.788" height="653.508" rx="150" fill="url(#paint0_linear_397_2879)"/>
<g filter="url(#filter0_d_397_2879)">
<path d="M518.495 313.47L534.721 312.031H534.917C535.507 315.677 535.901 319.419 536.294 323.065C536.687 326.711 536.884 330.453 537.081 334.195H536.884L520.658 335.634L520.855 342.447L560.191 338.801L559.896 331.988L543.375 333.523H543.276C543.08 329.781 542.883 326.135 542.49 322.393C542.096 318.747 541.703 315.005 541.113 311.359H541.211L557.831 309.824L556.749 303.107L517.413 306.754L518.495 313.47Z" fill="white"/>
<path d="M232.227 193.244L223.672 179.523L227.802 177.028L239.504 181.442C245.405 183.745 251.207 184.512 255.337 180.003L252.19 174.917C250.223 177.028 247.077 176.932 242.553 175.397L229.769 170.888L233.997 147.38L226.917 151.314L223.868 171.943L220.426 174.054L211.773 160.237L206.069 164.171L226.622 196.986L232.227 193.244Z" fill="white"/>
<path d="M318.373 133.564L318.078 129.822C318.766 129.726 319.455 129.726 320.045 129.63C323.978 129.342 327.912 129.151 331.846 129.055L334.402 161.582L341.384 161.102L338.828 129.151L338.336 123.01C334.599 123.01 330.764 123.01 327.027 123.202L312.079 124.353C311.784 124.353 311.391 124.449 311.096 124.449L311.588 130.494L311.686 132.029C313.456 155.249 309.916 158.031 305.884 158.319C304.999 158.415 304.114 158.319 303.622 158.127L303.425 163.788C304.507 163.98 306.769 164.172 308.342 164.076C316.013 163.501 320.241 158.223 318.373 133.564Z" fill="white"/>
<path d="M279.824 171.176C291.428 167.434 296.836 156.112 293.296 145.75C289.756 135.195 278.84 129.15 267.138 132.892C255.534 136.634 250.125 147.957 253.665 158.319C257.206 168.874 268.22 174.918 279.824 171.176ZM269.105 138.937C276.677 136.539 283.954 140.856 286.412 148.052C287.593 151.699 287.396 155.441 285.921 158.511C284.446 161.581 281.79 164.076 277.955 165.323C270.383 167.722 263.106 163.404 260.647 156.208C258.681 150.163 260.746 144.119 265.761 140.856C266.843 140.089 267.826 139.321 269.105 138.937Z" fill="white"/>
<path d="M488.993 207.157C496.565 199.097 496.467 186.624 487.419 178.564C481.912 173.767 475.323 172.135 469.128 173.479L470.701 180.291C474.93 179.236 479.454 180.099 483.092 183.266C488.108 187.775 488.698 194.396 485.354 199.769C482.404 196.794 479.355 193.916 476.208 191.229C474.93 190.078 473.553 188.927 472.275 187.775L468.243 192.381C469.521 193.436 470.8 194.588 472.078 195.643C475.225 198.426 478.274 201.304 481.224 204.279C476.012 208.021 469.03 208.117 463.916 203.607C460.179 200.345 458.901 195.835 459.786 191.517L452.804 190.558C451.919 196.794 454.082 203.415 459.687 208.308C468.735 216.368 481.322 215.313 488.993 207.157Z" fill="white"/>
<path d="M389.473 309.151C398.127 299.364 401.765 287.467 401.765 276.145C401.765 267.029 399.208 248.799 382.786 236.23C371.477 227.69 361.544 223.66 337.648 223.66H325.552C325.159 223.66 324.864 223.66 324.372 223.66H274.612V453.076H416.713V409.035C416.713 366.913 402.749 338.608 366.658 326.134C377.967 321.529 384.949 314.525 389.473 309.151ZM361.249 304.738C354.759 312.606 344.236 319.898 329.289 319.898C329.19 319.898 329.092 319.898 328.994 319.898V331.316C368.92 331.316 384.556 357.222 384.556 404.621V440.315H358.889V363.747H329.289V440.411H306.671V235.078H329.977C338.729 235.078 351.907 236.997 361.249 248.319C366.068 254.076 369.116 261.656 370.1 269.332H329.289V280.654H370.395C370.1 287.946 368.526 296.102 361.249 304.738Z" fill="url(#paint1_linear_397_2879)"/>
<path d="M424.973 170.793C428.907 172.712 433.726 171.177 435.692 167.339C437.659 163.501 436.086 158.799 432.152 156.88C428.219 154.961 423.4 156.497 421.433 160.335C419.466 164.173 421.04 168.874 424.973 170.793Z" fill="white"/>
<path d="M362.921 154.384C366.068 154.768 369.116 155.248 372.263 155.823C375.312 156.399 378.459 157.071 381.507 157.742L383.572 167.529L390.948 169.544L381.114 127.326L374.722 126.271L349.842 162.06L357.316 162.732L362.921 154.384ZM376.197 134.906L380.032 151.314C377.77 150.834 375.607 150.354 373.345 149.971C371.083 149.587 368.92 149.203 366.658 148.819L376.197 134.906Z" fill="white"/>
<path d="M520.855 253.116C510.234 256.954 504.53 267.893 508.759 279.119C512.988 290.345 524.887 295.046 535.409 291.208C546.03 287.37 551.733 276.432 547.505 265.206C543.178 253.98 531.377 249.278 520.855 253.116ZM541.408 267.317C544.161 274.513 540.129 281.901 532.852 284.492C532.164 284.78 531.475 284.684 530.885 284.876C524.198 286.411 517.413 283.628 514.954 277.008C513.184 272.498 514.168 267.893 516.921 264.534C517.315 263.959 517.905 263.479 518.396 262.999C518.495 262.903 518.593 262.711 518.691 262.615C518.986 262.328 519.38 262.136 519.773 261.848C520.166 261.56 520.56 261.272 520.953 260.984C520.953 260.984 520.953 260.984 521.051 260.984C521.838 260.504 522.625 260.121 523.51 259.833C527.148 258.49 530.984 258.585 534.229 259.833C537.376 261.176 540.031 263.671 541.408 267.317Z" fill="white"/>
<path d="M484.862 234.791L498.63 225.964L501.285 229.898L497.155 241.411C494.991 247.264 494.401 252.925 499.122 256.859L504.235 253.597C502.072 251.774 502.072 248.704 503.449 244.29L507.579 231.625L531.771 234.983L527.444 228.17L506.202 225.868L503.94 222.605L517.806 213.682L513.578 208.213L480.634 229.322L484.862 234.791Z" fill="white"/>
<path d="M146.475 275.089C150.9 275.473 154.735 272.403 155.227 268.085C155.621 263.767 152.474 260.025 148.048 259.546C143.623 259.162 139.788 262.232 139.296 266.55C138.804 270.868 142.05 274.61 146.475 275.089Z" fill="white"/>
<path d="M403.437 508.727L391.341 542.31L382.491 515.348L375.705 516.883L387.899 553.728L394.488 552.097L406.387 518.802L415.238 545.572L421.63 543.077L409.534 506.329L403.437 508.727Z" fill="url(#paint2_linear_397_2879)"/>
<path d="M336.566 532.812C332.14 532.812 328.6 536.266 328.6 540.583C328.6 544.901 332.14 548.355 336.566 548.355C340.991 548.355 344.531 544.901 344.531 540.583C344.531 536.362 340.991 532.812 336.566 532.812Z" fill="url(#paint3_linear_397_2879)"/>
<path d="M441.79 488.769L450.443 502.49L446.313 504.985L434.611 500.667C428.71 498.364 422.908 497.692 418.778 502.202L422.023 507.287C423.99 505.177 427.137 505.272 431.661 506.808L444.543 511.221L440.511 534.729L447.592 530.699L450.542 509.974L453.984 507.863L462.736 521.584L468.44 517.65L447.69 484.931L441.79 488.769Z" fill="url(#paint4_linear_397_2879)"/>
<path d="M479.454 454.611L485.944 489.632L464.604 470.442L459.589 475.048L488.796 501.242L493.713 496.541L487.222 461.903L508.464 480.901L512.791 475.72L483.584 449.525L479.454 454.611Z" fill="url(#paint5_linear_397_2879)"/>
<path d="M541.408 356.167C530.197 354.248 519.576 360.869 517.511 372.671C515.348 384.472 523.117 394.355 534.229 396.274C545.44 398.193 556.06 391.573 558.126 379.771C560.191 367.969 552.422 357.99 541.408 356.167ZM551.733 378.523C551.438 380.442 550.652 382.17 549.668 383.609C546.718 387.927 541.113 390.133 535.409 389.174C528.624 388.023 523.805 382.937 523.608 376.605C523.608 375.741 523.608 374.781 523.805 373.822C524.1 371.903 524.887 370.176 525.87 368.737C528.82 364.419 534.426 362.212 540.129 363.172C547.898 364.515 553.11 370.943 551.733 378.523Z" fill="white"/>
<path d="M267.826 519.857C266.253 525.038 268.613 528.396 272.645 531.179C269.4 531.851 266.056 533.482 264.679 537.991C263.893 540.582 264.188 542.885 265.368 544.996C266.941 547.778 269.99 550.177 274.317 551.424L288.871 555.07L299.885 517.938L284.937 513.716C276.578 511.221 269.891 513.14 267.826 519.857ZM277.07 545.571C272.743 544.324 270.875 541.829 271.76 538.951C271.956 538.279 272.251 537.703 272.547 537.224C273.628 535.784 275.3 535.209 277.464 535.305C278.447 535.305 279.43 535.497 280.512 535.784L287.002 537.608L284.052 547.49L277.07 545.571ZM280.709 529.836C275.398 528.3 273.432 525.71 274.317 522.543C275.103 519.953 277.168 518.705 280.02 518.897C281.004 518.897 282.085 519.089 283.167 519.473L291.624 521.872L288.576 532.138L280.709 529.836Z" fill="url(#paint6_linear_397_2879)"/>
<path d="M508.267 406.253L522.232 414.025C526.952 416.616 532.557 419.59 537.179 422.085L537.081 422.181C532.066 421.029 502.957 417.575 502.957 417.575L500.4 422.756C500.4 422.756 520.461 444.249 524.297 447.511L524.198 447.703C519.38 445.305 513.676 442.906 508.956 440.891L494.008 434.558L490.074 440.699L527.05 455.763L532.066 447.416C532.066 447.416 513.479 427.65 510.037 424.867L510.136 424.675C514.561 425.635 541.605 428.513 541.605 428.513L545.44 419.398L510.824 399.537L508.267 406.253Z" fill="url(#paint7_linear_397_2879)"/>
<path d="M157.292 382.649L147.36 380.25C146.672 377.275 146.18 374.205 145.688 371.231C145.098 368.256 144.705 365.186 144.41 362.115L153.064 356.838L152.572 349.354L115.203 372.67L116.186 378.906L159.161 389.653L157.292 382.649ZM138.509 365.665C138.804 367.872 139.099 370.079 139.493 372.286C139.886 374.493 140.28 376.604 140.673 378.811L123.955 374.685L138.509 365.665Z" fill="white"/>
<path d="M230.064 503.066C226.032 509.783 228.982 516.499 236.652 521.009L242.061 524.175L234.784 536.265L240.783 539.719L261.041 506.232L249.633 499.516C241.668 495.006 234.096 496.35 230.064 503.066ZM245.11 518.994L239.898 516.019C235.374 513.429 233.899 510.07 235.964 506.616C237.144 504.697 238.619 503.642 240.389 503.354C242.159 503.066 244.225 503.642 246.486 504.889L251.797 507.959L245.11 518.994Z" fill="url(#paint8_linear_397_2879)"/>
<path d="M181.681 244.577C191.121 230.185 202.627 217.231 215.804 206.005L210.887 201.784L185.516 180.387C183.844 181.922 182.074 183.457 180.5 185.088L205.872 206.389C202.037 209.939 198.398 213.585 194.858 217.423L169.683 196.218C168.11 197.946 166.635 199.673 165.061 201.4L190.236 222.605C186.893 226.443 183.746 230.472 180.795 234.694L155.424 213.393C154.047 215.216 152.769 217.135 151.392 218.958L176.764 240.355L181.681 244.577Z" fill="white"/>
<path d="M125.135 336.593C131.921 337.169 135.756 333.139 137.133 329.973L144.115 335.826C145.983 337.457 147.262 340.527 146.475 342.638L152.474 342.542C153.949 339.376 153.162 334.77 148.442 330.932L139.099 323.256L139.493 318.459L153.752 319.706L154.736 312.798L115.301 309.728C114.908 311.838 114.023 320.378 113.924 321.529C112.941 332.18 118.251 336.114 125.135 336.593ZM121.103 317.116L132.904 318.075L132.511 322.489C132.216 326.423 129.856 329.781 125.725 329.397C122.578 329.109 120.12 327.286 120.513 321.721C120.71 320.474 120.808 318.939 121.103 317.116Z" fill="white"/>
<path d="M184.631 442.905C174.699 428.801 167.028 413.449 161.619 397.137L155.719 399.92L125.627 414.312C126.414 416.423 127.2 418.534 128.085 420.741L158.079 406.252C159.948 411.05 161.914 415.847 164.176 420.453L134.281 434.749C135.264 436.86 136.346 438.875 137.329 440.89L167.225 426.594C169.585 431.103 172.142 435.517 174.895 439.835L145 454.323C146.18 456.242 147.458 458.161 148.737 460.08L178.829 445.688L184.631 442.905Z" fill="url(#paint9_linear_397_2879)"/>
<path d="M224.373 484.349L201.469 516.14L207.181 520.058L230.085 488.267L224.373 484.349Z" fill="url(#paint10_linear_397_2879)"/>
<path d="M201.84 462.575C196.727 457.202 189.941 455.187 183.648 456.051L184.631 462.863C189.056 461.999 193.678 463.151 197.022 466.797C202.43 472.458 201.545 480.806 195.842 485.891C190.04 491.072 181.681 491.36 176.272 485.699C172.928 482.245 172.043 477.735 173.125 473.609L166.143 472.17C164.865 478.119 166.536 484.644 171.453 489.825C179.812 498.556 192.596 498.556 200.759 491.168C209.118 483.588 210.101 471.403 201.84 462.575Z" fill="url(#paint11_linear_397_2879)"/>
</g>
<g filter="url(#filter1_f_397_2879)">
<rect x="35.6486" y="148.107" width="46.4993" height="400.599" fill="white" fill-opacity="0.5"/>
</g>
<g filter="url(#filter2_f_397_2879)">
<rect x="602.544" y="148.107" width="46.4993" height="400.599" fill="white" fill-opacity="0.5"/>
</g>
<g filter="url(#filter3_f_397_2879)">
<rect x="131.615" y="80.5361" width="45.3691" height="410.579" transform="rotate(-90 131.615 80.5361)" fill="white" fill-opacity="0.5"/>
</g>
<defs>
<filter id="filter0_d_397_2879" x="73.8069" y="113.01" width="526.384" height="512.061" filterUnits="userSpaceOnUse" color-interpolation-filters="sRGB">
<feFlood flood-opacity="0" result="BackgroundImageFix"/>
<feColorMatrix in="SourceAlpha" type="matrix" values="0 0 0 0 0 0 0 0 0 0 0 0 0 0 0 0 0 0 127 0" result="hardAlpha"/>
<feOffset dy="30"/>
<feGaussianBlur stdDeviation="20"/>
<feComposite in2="hardAlpha" operator="out"/>
<feColorMatrix type="matrix" values="0 0 0 0 0.012127 0 0 0 0 0.0687346 0 0 0 0 0.18195 0 0 0 1 0"/>
<feBlend mode="normal" in2="BackgroundImageFix" result="effect1_dropShadow_397_2879"/>
<feBlend mode="normal" in="SourceGraphic" in2="effect1_dropShadow_397_2879" result="shape"/>
</filter>
<filter id="filter1_f_397_2879" x="0.64856" y="113.107" width="116.499" height="470.6" filterUnits="userSpaceOnUse" color-interpolation-filters="sRGB">
<feFlood flood-opacity="0" result="BackgroundImageFix"/>
<feBlend mode="normal" in="SourceGraphic" in2="BackgroundImageFix" result="shape"/>
<feGaussianBlur stdDeviation="17.5" result="effect1_foregroundBlur_397_2879"/>
</filter>
<filter id="filter2_f_397_2879" x="567.544" y="113.107" width="116.499" height="470.6" filterUnits="userSpaceOnUse" color-interpolation-filters="sRGB">
<feFlood flood-opacity="0" result="BackgroundImageFix"/>
<feBlend mode="normal" in="SourceGraphic" in2="BackgroundImageFix" result="shape"/>
<feGaussianBlur stdDeviation="17.5" result="effect1_foregroundBlur_397_2879"/>
</filter>
<filter id="filter3_f_397_2879" x="96.6152" y="0.166992" width="480.579" height="115.369" filterUnits="userSpaceOnUse" color-interpolation-filters="sRGB">
<feFlood flood-opacity="0" result="BackgroundImageFix"/>
<feBlend mode="normal" in="SourceGraphic" in2="BackgroundImageFix" result="shape"/>
<feGaussianBlur stdDeviation="17.5" result="effect1_foregroundBlur_397_2879"/>
</filter>
<linearGradient id="paint0_linear_397_2879" x1="337.894" y1="12" x2="337.894" y2="665.508" gradientUnits="userSpaceOnUse">
<stop stop-color="#113581"/>
<stop offset="1" stop-color="#041029"/>
</linearGradient>
<linearGradient id="paint1_linear_397_2879" x1="345.662" y1="223.66" x2="345.662" y2="453.076" gradientUnits="userSpaceOnUse">
<stop stop-color="white"/>
<stop offset="0.48" stop-color="#CACACA"/>
<stop offset="1" stop-color="#64789F"/>
</linearGradient>
<linearGradient id="paint2_linear_397_2879" x1="398.667" y1="506.329" x2="398.667" y2="553.728" gradientUnits="userSpaceOnUse">
<stop stop-color="white"/>
<stop offset="0.48" stop-color="#CACACA"/>
<stop offset="1" stop-color="#64789F"/>
</linearGradient>
<linearGradient id="paint3_linear_397_2879" x1="336.566" y1="532.812" x2="336.566" y2="548.355" gradientUnits="userSpaceOnUse">
<stop stop-color="white"/>
<stop offset="0.48" stop-color="#CACACA"/>
<stop offset="1" stop-color="#64789F"/>
</linearGradient>
<linearGradient id="paint4_linear_397_2879" x1="443.609" y1="484.931" x2="443.609" y2="534.729" gradientUnits="userSpaceOnUse">
<stop stop-color="white"/>
<stop offset="0.48" stop-color="#CACACA"/>
<stop offset="1" stop-color="#64789F"/>
</linearGradient>
<linearGradient id="paint5_linear_397_2879" x1="486.19" y1="449.525" x2="486.19" y2="501.242" gradientUnits="userSpaceOnUse">
<stop stop-color="white"/>
<stop offset="0.48" stop-color="#CACACA"/>
<stop offset="1" stop-color="#64789F"/>
</linearGradient>
<linearGradient id="paint6_linear_397_2879" x1="282.063" y1="512.667" x2="282.063" y2="555.07" gradientUnits="userSpaceOnUse">
<stop stop-color="white"/>
<stop offset="0.48" stop-color="#CACACA"/>
<stop offset="1" stop-color="#64789F"/>
</linearGradient>
<linearGradient id="paint7_linear_397_2879" x1="517.757" y1="399.537" x2="517.757" y2="455.763" gradientUnits="userSpaceOnUse">
<stop stop-color="white"/>
<stop offset="0.48" stop-color="#CACACA"/>
<stop offset="1" stop-color="#64789F"/>
</linearGradient>
<linearGradient id="paint8_linear_397_2879" x1="244.65" y1="496.882" x2="244.65" y2="539.719" gradientUnits="userSpaceOnUse">
<stop stop-color="white"/>
<stop offset="0.48" stop-color="#CACACA"/>
<stop offset="1" stop-color="#64789F"/>
</linearGradient>
<linearGradient id="paint9_linear_397_2879" x1="155.129" y1="397.137" x2="155.129" y2="460.08" gradientUnits="userSpaceOnUse">
<stop stop-color="white"/>
<stop offset="0.48" stop-color="#CACACA"/>
<stop offset="1" stop-color="#64789F"/>
</linearGradient>
<linearGradient id="paint10_linear_397_2879" x1="212.921" y1="500.245" x2="218.539" y2="504.293" gradientUnits="userSpaceOnUse">
<stop stop-color="white"/>
<stop offset="0.48" stop-color="#CACACA"/>
<stop offset="1" stop-color="#64789F"/>
</linearGradient>
<linearGradient id="paint11_linear_397_2879" x1="186.643" y1="455.858" x2="186.643" y2="496.552" gradientUnits="userSpaceOnUse">
<stop stop-color="white"/>
<stop offset="0.48" stop-color="#CACACA"/>
<stop offset="1" stop-color="#64789F"/>
</linearGradient>
</defs>
</svg>
