<svg width="1172" height="328" viewBox="0 0 1172 328" fill="none" xmlns="http://www.w3.org/2000/svg">
<mask id="mask0_259_6660" style="mask-type:alpha" maskUnits="userSpaceOnUse" x="0" y="0" width="368" height="328">
<path d="M0 15C0 6.71573 6.71573 0 15 0H97.5674C103.702 0 109.219 3.73572 111.496 9.43223L181.132 183.635C181.551 184.682 182.565 185.369 183.694 185.369C184.822 185.369 185.836 184.682 186.255 183.635L255.891 9.43221C258.168 3.73571 263.685 0 269.82 0H352.387C360.671 0 367.387 6.71573 367.387 15V312.273C367.387 320.557 360.671 327.273 352.387 327.273H297.701C289.417 327.273 282.701 320.557 282.701 312.273V139.542C282.701 138.728 282.041 138.068 281.227 138.068C280.615 138.068 280.067 138.446 279.849 139.018L212.901 315.048C210.687 320.869 205.108 324.716 198.88 324.716H168.532C162.292 324.716 156.704 320.853 154.499 315.016L87.5363 137.742C87.3198 137.169 86.7712 136.79 86.1586 136.79C85.3452 136.79 84.6858 137.449 84.6858 138.263V312.273C84.6858 320.557 77.9701 327.273 69.6858 327.273H15C6.71573 327.273 0 320.557 0 312.273V15Z" fill="black"/>
</mask>
<g mask="url(#mask0_259_6660)">
<g filter="url(#filter0_i_259_6660)">
<path d="M0 15C0 6.71573 6.71573 0 15 0H97.5674C103.702 0 109.219 3.73572 111.496 9.43223L181.132 183.635C181.551 184.682 182.565 185.369 183.694 185.369C184.822 185.369 185.836 184.682 186.255 183.635L255.891 9.43221C258.168 3.73571 263.685 0 269.82 0H352.387C360.671 0 367.387 6.71573 367.387 15V312.273C367.387 320.557 360.671 327.273 352.387 327.273H297.701C289.417 327.273 282.701 320.557 282.701 312.273V139.542C282.701 138.728 282.041 138.068 281.227 138.068C280.615 138.068 280.067 138.446 279.849 139.018L212.901 315.048C210.687 320.869 205.108 324.716 198.88 324.716H168.532C162.292 324.716 156.704 320.853 154.499 315.016L87.5363 137.742C87.3198 137.169 86.7712 136.79 86.1586 136.79C85.3452 136.79 84.6858 137.449 84.6858 138.263V312.273C84.6858 320.557 77.9701 327.273 69.6858 327.273H15C6.71573 327.273 0 320.557 0 312.273V15Z" fill="#B8B1F7"/>
</g>
<g filter="url(#filter1_i_259_6660)">
<path d="M18.4178 48C18.4178 39.7157 25.1335 33 33.4178 33H105.132C111.267 33 116.783 36.7357 119.06 42.4322L181.301 198.133C181.677 199.076 182.59 199.693 183.604 199.693C184.619 199.693 185.531 199.076 185.908 198.133L248.148 42.4322C250.425 36.7357 255.942 33 262.076 33H333.791C342.075 33 348.791 39.7157 348.791 48V312.3C348.791 320.584 342.075 327.3 333.791 327.3H287.637C279.353 327.3 272.637 320.584 272.637 312.3V158.483C272.637 157.751 272.043 157.158 271.311 157.158C270.761 157.158 270.268 157.498 270.072 158.012L210.239 315.333C208.026 321.153 202.446 325.001 196.219 325.001H171.014C164.775 325.001 159.187 321.138 156.982 315.301L97.1348 156.865C96.9401 156.349 96.4468 156.008 95.8959 156.008C95.1645 156.008 94.5715 156.601 94.5715 157.333V312.3C94.5715 320.584 87.8558 327.3 79.5715 327.3H33.4178C25.1335 327.3 18.4178 320.584 18.4178 312.3V48Z" fill="#9185E3"/>
</g>
<g filter="url(#filter2_i_259_6660)">
<path d="M34.9786 77C34.9786 68.7157 41.6943 62 49.9786 62H111.982C118.117 62 123.634 65.7357 125.911 71.4322L181.535 210.581C181.873 211.429 182.694 211.984 183.607 211.984C184.52 211.984 185.341 211.429 185.68 210.581L241.303 71.4322C243.58 65.7357 249.097 62 255.232 62H317.236C325.52 62 332.235 68.7157 332.235 77V311.8C332.235 320.084 325.52 326.8 317.235 326.8H278.715C270.431 326.8 263.715 320.084 263.715 311.8V174.905C263.715 174.247 263.181 173.713 262.522 173.713C262.027 173.713 261.584 174.018 261.408 174.481L207.941 315.063C205.727 320.884 200.148 324.731 193.921 324.731H173.319C167.079 324.731 161.491 320.869 159.286 315.032L105.805 173.449C105.63 172.985 105.186 172.678 104.69 172.678C104.032 172.678 103.499 173.212 103.499 173.87V311.8C103.499 320.084 96.7831 326.8 88.4988 326.8H49.9786C41.6943 326.8 34.9786 320.084 34.9786 311.8V77Z" fill="#5452D4"/>
</g>
<g filter="url(#filter3_i_259_6660)">
<path d="M50.5652 104C50.5652 95.7157 57.2809 89 65.5652 89H118.748C124.882 89 130.399 92.7357 132.676 98.4322L182.288 222.543C182.593 223.305 183.331 223.805 184.151 223.805C184.972 223.805 185.709 223.305 186.014 222.543L235.626 98.4322C237.904 92.7357 243.42 89 249.555 89H302.737C311.021 89 317.737 95.7157 317.737 104V312C317.737 320.284 311.021 327 302.737 327H271.152C262.867 327 256.152 320.284 256.152 312V190.478C256.152 189.886 255.672 189.406 255.08 189.406C254.635 189.406 254.236 189.681 254.078 190.097L206.394 315.473C204.181 321.293 198.601 325.141 192.374 325.141H175.953C169.714 325.141 164.126 321.278 161.921 315.441L114.224 189.169C114.066 188.752 113.667 188.477 113.222 188.477C112.63 188.477 112.151 188.956 112.151 189.548V312C112.151 320.284 105.435 327 97.1506 327H65.5652C57.2809 327 50.5652 320.284 50.5652 312V104Z" fill="#372DC0"/>
</g>
<g filter="url(#filter4_i_259_6660)">
<path d="M63.2293 127C63.2293 118.716 69.945 112 78.2293 112H123.676C129.811 112 135.328 115.736 137.605 121.432L181.946 232.357C182.221 233.044 182.886 233.494 183.625 233.494C184.365 233.494 185.029 233.044 185.304 232.357L229.645 121.432C231.923 115.736 237.439 112 243.574 112H289.021C297.305 112 304.021 118.716 304.021 127V311.5C304.021 319.784 297.305 326.5 289.021 326.5H263.516C255.232 326.5 248.516 319.784 248.516 311.5V203.458C248.516 202.925 248.084 202.492 247.55 202.492C247.149 202.492 246.79 202.74 246.647 203.115L204.035 315.156C201.821 320.977 196.242 324.824 190.015 324.824H177.261C171.021 324.824 165.433 320.962 163.228 315.125L120.602 202.278C120.46 201.903 120.101 201.654 119.699 201.654C119.166 201.654 118.734 202.086 118.734 202.62V311.5C118.734 319.784 112.018 326.5 103.734 326.5H78.2293C69.945 326.5 63.2293 319.784 63.2293 311.5V127Z" fill="#2717BB"/>
</g>
<g filter="url(#filter5_i_259_6660)">
<path d="M86.6093 168C86.6093 159.716 93.325 153 101.609 153H133.627C139.761 153 145.278 156.736 147.555 162.432L182.745 250.464C182.967 251.02 183.506 251.385 184.105 251.385C184.703 251.385 185.242 251.02 185.464 250.464L220.654 162.432C222.931 156.736 228.448 153 234.583 153H266.6C274.884 153 281.6 159.716 281.6 168V311.7C281.6 319.984 274.884 326.7 266.6 326.7H251.653C243.369 326.7 236.653 319.984 236.653 311.7V227.062C236.653 226.63 236.303 226.28 235.87 226.28C235.546 226.28 235.255 226.48 235.139 226.784L201.332 315.675C199.118 321.496 193.539 325.343 187.311 325.343H180.923C174.683 325.343 169.095 321.48 166.891 315.643L133.069 226.107C132.954 225.802 132.663 225.601 132.338 225.601C131.906 225.601 131.556 225.951 131.556 226.383V311.7C131.556 319.984 124.841 326.7 116.556 326.7H101.609C93.325 326.7 86.6093 319.984 86.6093 311.7V168Z" fill="#16119E"/>
</g>
<g filter="url(#filter6_i_259_6660)">
<path d="M96.3509 186C96.3509 177.716 103.067 171 111.351 171H137.674C143.808 171 149.325 174.736 151.602 180.432L182.912 258.757C183.112 259.258 183.597 259.586 184.136 259.586C184.675 259.586 185.16 259.258 185.36 258.757L216.67 180.432C218.947 174.736 224.463 171 230.598 171H256.921C265.205 171 271.921 177.716 271.921 186V312.4C271.921 320.684 265.205 327.4 256.921 327.4H232.607C231.837 327.4 231.069 327.459 230.308 327.577L224.151 328.532C222.161 328.841 220.129 328.746 218.177 328.252L214.803 327.4L197.351 324.679C196.587 324.56 195.814 324.5 195.04 324.5H183.539H171.849H161.224H149.774C148.484 324.5 147.2 324.666 145.953 324.995L138.7 326.905C137.453 327.234 136.168 327.4 134.879 327.4H111.351C103.067 327.4 96.3509 320.684 96.3509 312.4V186Z" fill="#171382"/>
</g>
<g filter="url(#filter7_i_259_6660)">
<path d="M107.158 203C107.158 194.716 113.874 188 122.158 188H142.119C148.26 188 153.781 191.744 156.054 197.449L183.045 265.206C183.22 265.645 183.644 265.933 184.117 265.933C184.59 265.933 185.014 265.645 185.189 265.206L212.18 197.449C214.453 191.744 219.974 188 226.115 188H246.076C254.36 188 261.076 194.716 261.076 203V310.592C261.076 318.877 254.36 325.592 246.076 325.592H226.757C225.984 325.592 225.213 325.652 224.45 325.771L219.579 326.529C217.582 326.84 215.544 326.744 213.585 326.247L211.002 325.592L195.848 323.221C195.081 323.101 194.306 323.041 193.529 323.041H183.593H173.345H164.031H154.239C152.945 323.041 151.657 323.209 150.406 323.539L144.522 325.094C143.271 325.425 141.982 325.592 140.689 325.592H122.158C113.874 325.592 107.158 318.877 107.158 310.592V203Z" fill="#0E0B60"/>
</g>
</g>
<mask id="mask1_259_6660" style="mask-type:alpha" maskUnits="userSpaceOnUse" x="407" y="0" width="87" height="328">
<path d="M478.941 0C487.225 0 493.941 6.71573 493.941 15V312.273C493.941 320.557 487.225 327.273 478.941 327.273H422.387C414.103 327.273 407.387 320.557 407.387 312.273V15C407.387 6.71573 414.103 0 422.387 0H478.941Z" fill="black"/>
</mask>
<g mask="url(#mask1_259_6660)">
<g filter="url(#filter8_i_259_6660)">
<path d="M478.941 0C487.225 0 493.941 6.71573 493.941 15V312.273C493.941 320.557 487.225 327.273 478.941 327.273H422.387C414.103 327.273 407.387 320.557 407.387 312.273V15C407.387 6.71573 414.103 0 422.387 0H478.941Z" fill="#B8B1F7"/>
</g>
<g filter="url(#filter9_i_259_6660)">
<path d="M475 16.2728C483.284 16.2728 490 22.9885 490 31.2728V295.573C490 303.857 483.284 310.573 475 310.573H427.167C418.882 310.573 412.166 303.857 412.166 295.573V31.2728C412.166 22.9885 418.882 16.2728 427.166 16.2728H475Z" fill="#9185E3"/>
</g>
<g filter="url(#filter10_i_259_6660)">
<path d="M471.095 31.2728C479.379 31.2728 486.095 37.9885 486.095 46.2728V281.073C486.095 289.357 479.379 296.073 471.095 296.073H431.063C422.779 296.073 416.063 289.357 416.063 281.073V46.2728C416.063 37.9885 422.779 31.2728 431.063 31.2728H471.095Z" fill="#5452D4"/>
</g>
<g filter="url(#filter11_i_259_6660)">
<path d="M467.904 44.2728C476.188 44.2728 482.904 50.9885 482.904 59.2728V267.273C482.904 275.557 476.188 282.273 467.904 282.273H434.96C426.676 282.273 419.96 275.557 419.96 267.273V59.2728C419.96 50.9885 426.676 44.2728 434.96 44.2728H467.904Z" fill="#372DC0"/>
</g>
<g filter="url(#filter12_i_259_6660)">
<path d="M464.611 56.2728C472.895 56.2728 479.611 62.9885 479.611 71.2728V255.773C479.611 264.057 472.895 270.773 464.611 270.773H437.882C429.598 270.773 422.882 264.057 422.882 255.773V71.2728C422.882 62.9885 429.598 56.2728 437.882 56.2728H464.611Z" fill="#2717BB"/>
</g>
<g filter="url(#filter13_i_259_6660)">
<path d="M458.692 76.2728C466.976 76.2728 473.692 82.9885 473.692 91.2728V234.973C473.692 243.257 466.976 249.973 458.692 249.973H442.753C434.469 249.973 427.753 243.257 427.753 234.973V91.2727C427.753 82.9885 434.469 76.2728 442.753 76.2728H458.692Z" fill="#16119E"/>
</g>
<g filter="url(#filter14_i_259_6660)">
<path d="M457.039 85.2728C465.323 85.2728 472.039 91.9885 472.039 100.273V226.673C472.039 234.957 465.323 241.673 457.039 241.673H445.676C437.391 241.673 430.676 234.957 430.676 226.673V100.273C430.676 91.9885 437.391 85.2728 445.676 85.2728H457.039Z" fill="#171382"/>
</g>
<g filter="url(#filter15_i_259_6660)">
<path d="M453.632 98C461.916 98 468.632 104.716 468.632 113V214C468.632 222.284 461.916 229 453.632 229H449.536C441.252 229 434.536 222.284 434.536 214V113C434.536 104.716 441.252 98 449.536 98H453.632Z" fill="#0E0B60"/>
</g>
</g>
<mask id="mask2_259_6660" style="mask-type:alpha" maskUnits="userSpaceOnUse" x="533" y="0" width="231" height="328">
<path d="M533.941 327.273V0H763.713V71.5909H620.495V127.841H751.882V199.432H620.495V255.682H763.091V327.273H533.941Z" fill="black"/>
</mask>
<g mask="url(#mask2_259_6660)">
<g filter="url(#filter16_i_259_6660)">
<path d="M548.941 326.273C540.657 326.273 533.941 319.557 533.941 311.273V14C533.941 5.71573 540.657 -1 548.941 -1H748.713C756.998 -1 763.713 5.71573 763.713 14V55.5909C763.713 63.8752 756.998 70.5909 748.713 70.5909H635.495C627.21 70.5909 620.495 77.3066 620.495 85.5909V111.841C620.495 120.125 627.21 126.841 635.495 126.841H736.882C745.167 126.841 751.882 133.557 751.882 141.841V183.432C751.882 191.716 745.167 198.432 736.882 198.432H635.495C627.21 198.432 620.495 205.148 620.495 213.432V239.682C620.495 247.966 627.21 254.682 635.495 254.682H748.091C756.375 254.682 763.091 261.398 763.091 269.682V311.273C763.091 319.557 756.375 326.273 748.091 326.273H548.941Z" fill="#B8B1F7"/>
</g>
<g filter="url(#filter17_i_259_6660)">
<path d="M560.539 309.573C552.255 309.573 545.539 302.857 545.539 294.573V30.2728C545.539 21.9885 552.255 15.2728 560.539 15.2728H737.162C745.447 15.2728 752.162 21.9885 752.162 30.2728V64.6509C752.162 72.9352 745.447 79.6509 737.162 79.6509H638.373C630.089 79.6509 623.373 86.3666 623.373 94.6509V115.234C623.373 123.518 630.089 130.234 638.373 130.234H726.523C734.808 130.234 741.523 136.949 741.523 145.234V179.612C741.523 187.896 734.808 194.612 726.523 194.612H638.373C630.089 194.612 623.373 201.328 623.373 209.612V230.195C623.373 238.479 630.089 245.195 638.373 245.195H736.603C744.887 245.195 751.603 251.91 751.603 260.195V294.573C751.603 302.857 744.887 309.573 736.603 309.573H560.539Z" fill="#9185E3"/>
</g>
<g filter="url(#filter18_i_259_6660)">
<path d="M567.359 295.073C559.074 295.073 552.359 288.357 552.359 280.073V45.2728C552.359 36.9885 559.074 30.2728 567.359 30.2728H723.27C731.554 30.2728 738.27 36.9885 738.27 45.2728V73.1978C738.27 81.4821 731.554 88.1978 723.27 88.1978H637.39C629.106 88.1978 622.39 94.9135 622.39 103.198V118.71C622.39 126.995 629.106 133.71 637.39 133.71H713.697C721.982 133.71 728.697 140.426 728.697 148.71V176.635C728.697 184.92 721.982 191.635 713.697 191.635H637.39C629.106 191.635 622.39 198.351 622.39 206.635V222.148C622.39 230.432 629.106 237.148 637.39 237.148H722.766C731.051 237.148 737.766 243.863 737.766 252.148V280.073C737.766 288.357 731.051 295.073 722.766 295.073H567.359Z" fill="#5452D4"/>
</g>
<g filter="url(#filter19_i_259_6660)">
<path d="M572.229 281.273C563.945 281.273 557.229 274.557 557.229 266.273V58.2728C557.229 49.9885 563.945 43.2728 572.229 43.2728H709.325C717.609 43.2728 724.325 49.9885 724.325 58.2728V80.3353C724.325 88.6195 717.609 95.3353 709.325 95.3353H635.173C626.889 95.3353 620.173 102.051 620.173 110.335V121.242C620.173 129.526 626.889 136.242 635.173 136.242H700.721C709.006 136.242 715.721 142.957 715.721 151.242V173.304C715.721 181.588 709.006 188.304 700.721 188.304H635.173C626.889 188.304 620.173 195.02 620.173 203.304V214.21C620.173 222.495 626.889 229.21 635.173 229.21H708.872C717.157 229.21 723.872 235.926 723.872 244.21V266.273C723.872 274.557 717.157 281.273 708.872 281.273H572.229Z" fill="#372DC0"/>
</g>
<g filter="url(#filter20_i_259_6660)">
<path d="M578.074 269.773C569.79 269.773 563.074 263.057 563.074 254.773V70.2728C563.074 61.9885 569.79 55.2728 578.074 55.2728H698.671C706.955 55.2728 713.671 61.9885 713.671 70.2728V87.1946C713.671 95.4789 706.955 102.195 698.671 102.195H634.803C626.519 102.195 619.803 108.91 619.803 117.195V124.062C619.803 132.346 626.519 139.062 634.803 139.062H690.917C699.201 139.062 705.917 145.778 705.917 154.062V170.984C705.917 179.268 699.201 185.984 690.917 185.984H634.803C626.519 185.984 619.803 192.699 619.803 200.984V207.851C619.803 216.135 626.519 222.851 634.803 222.851H698.263C706.547 222.851 713.263 229.567 713.263 237.851V254.773C713.263 263.057 706.547 269.773 698.263 269.773H578.074Z" fill="#2717BB"/>
</g>
<g filter="url(#filter21_i_259_6660)">
<path d="M587.816 248.973C579.532 248.973 572.816 242.257 572.816 233.973V90.2727C572.816 81.9885 579.532 75.2728 587.816 75.2728H679.768C688.052 75.2728 694.768 81.9885 694.768 90.2728V98.2696C694.768 106.554 688.052 113.27 679.768 113.27H633.682C625.438 113.27 618.755 119.953 618.755 128.197C618.755 136.441 625.438 143.124 633.682 143.124H673.488C681.773 143.124 688.488 149.84 688.488 158.124V166.121C688.488 174.405 681.773 181.121 673.488 181.121H633.682C625.438 181.121 618.755 187.804 618.755 196.049C618.755 204.293 625.438 210.976 633.682 210.976H679.437C687.722 210.976 694.437 217.692 694.437 225.976V233.973C694.437 242.257 687.722 248.973 679.437 248.973H587.816Z" fill="#16119E"/>
</g>
<g filter="url(#filter22_i_259_6660)">
<path d="M592.687 240.673C584.403 240.673 577.687 233.957 577.687 225.673V99.2728C577.687 90.9885 584.403 84.2728 592.687 84.2728H672.493C680.777 84.2728 687.493 90.9885 687.493 99.2728V103.485C687.493 111.77 680.777 118.485 672.493 118.485H632.491C625.068 118.485 619.05 124.503 619.05 131.926C619.05 139.349 625.068 145.367 632.491 145.367H666.839C675.123 145.367 681.839 152.082 681.839 160.367V164.579C681.839 172.863 675.123 179.579 666.839 179.579H632.491C625.068 179.579 619.05 185.597 619.05 193.02C619.05 200.443 625.068 206.46 632.491 206.46H672.195C680.479 206.46 687.195 213.176 687.195 221.46V225.673C687.195 233.957 680.479 240.673 672.195 240.673H592.687Z" fill="#171382"/>
</g>
<g filter="url(#filter23_i_259_6660)">
<path d="M594.746 234C586.462 234 579.746 227.284 579.746 219V109C579.746 100.716 586.462 94 594.746 94H663.136C671.421 94 678.136 100.716 678.136 109V109.625C678.136 117.909 671.421 124.625 663.136 124.625H628.84C622.196 124.625 616.809 130.012 616.809 136.656C616.809 143.301 622.196 148.687 628.84 148.687H658.07C666.355 148.687 673.07 155.403 673.07 163.688V164.312C673.07 172.597 666.355 179.312 658.07 179.312H628.84C622.196 179.312 616.809 184.699 616.809 191.344C616.809 197.988 622.196 203.375 628.84 203.375H662.87C671.154 203.375 677.87 210.091 677.87 218.375V219C677.87 227.284 671.154 234 662.87 234H594.746Z" fill="#0E0B60"/>
</g>
</g>
<mask id="mask3_259_6660" style="mask-type:alpha" maskUnits="userSpaceOnUse" x="803" y="0" width="369" height="328">
<path d="M803.713 15C803.713 6.71573 810.429 0 818.713 0H901.281C907.416 0 912.932 3.73572 915.209 9.43223L984.845 183.635C985.264 184.682 986.279 185.369 987.407 185.369C988.535 185.369 989.55 184.682 989.968 183.635L1059.6 9.43221C1061.88 3.73571 1067.4 0 1073.53 0H1156.1C1164.38 0 1171.1 6.71573 1171.1 15V312.273C1171.1 320.557 1164.38 327.273 1156.1 327.273H1101.41C1093.13 327.273 1086.41 320.557 1086.41 312.273V139.542C1086.41 138.728 1085.75 138.068 1084.94 138.068C1084.33 138.068 1083.78 138.446 1083.56 139.018L1016.61 315.048C1014.4 320.869 1008.82 324.716 1002.59 324.716H972.245C966.006 324.716 960.418 320.853 958.213 315.016L891.25 137.742C891.033 137.169 890.485 136.79 889.872 136.79C889.059 136.79 888.399 137.449 888.399 138.263V312.273C888.399 320.557 881.683 327.273 873.399 327.273H818.713C810.429 327.273 803.713 320.557 803.713 312.273V15Z" fill="black"/>
</mask>
<g mask="url(#mask3_259_6660)">
<g filter="url(#filter24_i_259_6660)">
<path d="M803.713 15C803.713 6.71573 810.429 0 818.713 0H901.281C907.416 0 912.932 3.73572 915.209 9.43223L984.845 183.635C985.264 184.682 986.279 185.369 987.407 185.369C988.535 185.369 989.55 184.682 989.968 183.635L1059.6 9.43221C1061.88 3.73571 1067.4 0 1073.53 0H1156.1C1164.38 0 1171.1 6.71573 1171.1 15V312.273C1171.1 320.557 1164.38 327.273 1156.1 327.273H1101.41C1093.13 327.273 1086.41 320.557 1086.41 312.273V139.542C1086.41 138.728 1085.75 138.068 1084.94 138.068C1084.33 138.068 1083.78 138.446 1083.56 139.018L1016.61 315.048C1014.4 320.869 1008.82 324.716 1002.59 324.716H972.245C966.006 324.716 960.418 320.853 958.213 315.016L891.25 137.742C891.033 137.169 890.485 136.79 889.872 136.79C889.059 136.79 888.399 137.449 888.399 138.263V312.273C888.399 320.557 881.683 327.273 873.399 327.273H818.713C810.429 327.273 803.713 320.557 803.713 312.273V15Z" fill="#B8B1F7"/>
</g>
<g filter="url(#filter25_i_259_6660)">
<path d="M822.131 48C822.131 39.7157 828.847 33 837.131 33H908.845C914.98 33 920.496 36.7357 922.774 42.4322L985.014 198.133C985.391 199.076 986.303 199.693 987.318 199.693C988.332 199.693 989.244 199.076 989.621 198.133L1051.86 42.4322C1054.14 36.7357 1059.66 33 1065.79 33H1137.5C1145.79 33 1152.5 39.7157 1152.5 48V312.3C1152.5 320.584 1145.79 327.3 1137.5 327.3H1091.35C1083.07 327.3 1076.35 320.584 1076.35 312.3V158.483C1076.35 157.751 1075.76 157.158 1075.02 157.158C1074.47 157.158 1073.98 157.498 1073.79 158.012L1013.95 315.333C1011.74 321.153 1006.16 325.001 999.932 325.001H974.728C968.488 325.001 962.9 321.138 960.696 315.301L900.848 156.865C900.654 156.349 900.16 156.008 899.609 156.008C898.878 156.008 898.285 156.601 898.285 157.333V312.3C898.285 320.584 891.569 327.3 883.285 327.3H837.131C828.847 327.3 822.131 320.584 822.131 312.3V48Z" fill="#9185E3"/>
</g>
<g filter="url(#filter26_i_259_6660)">
<path d="M838.692 77C838.692 68.7157 845.408 62 853.692 62H915.696C921.831 62 927.347 65.7357 929.624 71.4322L985.248 210.581C985.587 211.429 986.408 211.984 987.32 211.984C988.233 211.984 989.054 211.429 989.393 210.581L1045.02 71.4322C1047.29 65.7357 1052.81 62 1058.95 62H1120.95C1129.23 62 1135.95 68.7157 1135.95 77V311.8C1135.95 320.084 1129.23 326.8 1120.95 326.8H1082.43C1074.14 326.8 1067.43 320.084 1067.43 311.8V174.905C1067.43 174.247 1066.89 173.713 1066.24 173.713C1065.74 173.713 1065.3 174.018 1065.12 174.481L1011.65 315.063C1009.44 320.884 1003.86 324.731 997.634 324.731H977.032C970.792 324.731 965.205 320.869 963 315.032L909.519 173.449C909.343 172.985 908.899 172.678 908.404 172.678C907.746 172.678 907.212 173.212 907.212 173.87V311.8C907.212 320.084 900.496 326.8 892.212 326.8H853.692C845.408 326.8 838.692 320.084 838.692 311.8V77Z" fill="#5452D4"/>
</g>
<g filter="url(#filter27_i_259_6660)">
<path d="M854.279 104C854.279 95.7157 860.994 89 869.279 89H922.461C928.596 89 934.112 92.7357 936.389 98.4322L986.002 222.543C986.306 223.305 987.044 223.805 987.865 223.805C988.685 223.805 989.423 223.305 989.727 222.543L1039.34 98.4322C1041.62 92.7357 1047.13 89 1053.27 89H1106.45C1114.73 89 1121.45 95.7157 1121.45 104V312C1121.45 320.284 1114.73 327 1106.45 327H1074.87C1066.58 327 1059.87 320.284 1059.87 312V190.478C1059.87 189.886 1059.39 189.406 1058.79 189.406C1058.35 189.406 1057.95 189.681 1057.79 190.097L1010.11 315.473C1007.89 321.293 1002.31 325.141 996.087 325.141H979.667C973.427 325.141 967.839 321.278 965.634 315.441L917.937 189.169C917.779 188.752 917.38 188.477 916.935 188.477C916.343 188.477 915.864 188.956 915.864 189.548V312C915.864 320.284 909.148 327 900.864 327H869.279C860.994 327 854.279 320.284 854.279 312V104Z" fill="#372DC0"/>
</g>
<g filter="url(#filter28_i_259_6660)">
<path d="M866.943 127C866.943 118.716 873.658 112 881.943 112H927.39C933.525 112 939.041 115.736 941.318 121.432L985.66 232.357C985.934 233.044 986.599 233.494 987.338 233.494C988.078 233.494 988.743 233.044 989.017 232.357L1033.36 121.432C1035.64 115.736 1041.15 112 1047.29 112H1092.73C1101.02 112 1107.73 118.716 1107.73 127V311.5C1107.73 319.784 1101.02 326.5 1092.73 326.5H1067.23C1058.95 326.5 1052.23 319.784 1052.23 311.5V203.458C1052.23 202.925 1051.8 202.492 1051.26 202.492C1050.86 202.492 1050.5 202.74 1050.36 203.115L1007.75 315.156C1005.53 320.977 999.955 324.824 993.728 324.824H980.974C974.734 324.824 969.146 320.962 966.942 315.125L924.315 202.278C924.174 201.903 923.814 201.654 923.412 201.654C922.879 201.654 922.447 202.086 922.447 202.62V311.5C922.447 319.784 915.731 326.5 907.447 326.5H881.943C873.658 326.5 866.943 319.784 866.943 311.5V127Z" fill="#2717BB"/>
</g>
<g filter="url(#filter29_i_259_6660)">
<path d="M890.323 168C890.323 159.716 897.038 153 905.323 153H937.34C943.475 153 948.991 156.736 951.268 162.432L986.458 250.464C986.681 251.02 987.219 251.385 987.818 251.385C988.417 251.385 988.955 251.02 989.177 250.464L1024.37 162.432C1026.64 156.736 1032.16 153 1038.3 153H1070.31C1078.6 153 1085.31 159.716 1085.31 168V311.7C1085.31 319.984 1078.6 326.7 1070.31 326.7H1055.37C1047.08 326.7 1040.37 319.984 1040.37 311.7V227.062C1040.37 226.63 1040.02 226.28 1039.58 226.28C1039.26 226.28 1038.97 226.48 1038.85 226.784L1005.05 315.675C1002.83 321.496 997.252 325.343 991.025 325.343H984.636C978.397 325.343 972.809 321.48 970.604 315.643L936.782 226.107C936.668 225.802 936.376 225.601 936.051 225.601C935.62 225.601 935.27 225.951 935.27 226.383V311.7C935.27 319.984 928.554 326.7 920.27 326.7H905.323C897.038 326.7 890.323 319.984 890.323 311.7V168Z" fill="#16119E"/>
</g>
<g filter="url(#filter30_i_259_6660)">
<path d="M900.064 186C900.064 177.716 906.78 171 915.064 171H941.387C947.522 171 953.038 174.736 955.315 180.432L986.625 258.757C986.825 259.258 987.31 259.586 987.849 259.586C988.388 259.586 988.873 259.258 989.073 258.757L1020.38 180.432C1022.66 174.736 1028.18 171 1034.31 171H1060.63C1068.92 171 1075.63 177.716 1075.63 186V312.4C1075.63 320.684 1068.92 327.4 1060.63 327.4H1036.32C1035.55 327.4 1034.78 327.459 1034.02 327.577L1027.86 328.532C1025.87 328.841 1023.84 328.746 1021.89 328.252L1018.52 327.4L1001.06 324.679C1000.3 324.56 999.527 324.5 998.754 324.5H987.252H975.562H964.937H953.487C952.198 324.5 950.914 324.666 949.667 324.995L942.413 326.905C941.166 327.234 939.882 327.4 938.592 327.4H915.064C906.78 327.4 900.064 320.684 900.064 312.4V186Z" fill="#171382"/>
</g>
<g filter="url(#filter31_i_259_6660)">
<path d="M909.073 202C909.073 193.716 915.788 187 924.073 187H944.625C950.756 187 956.27 190.731 958.55 196.423L985.918 264.758C986.096 265.203 986.527 265.494 987.006 265.494C987.484 265.494 987.915 265.203 988.093 264.758L1015.46 196.423C1017.74 190.731 1023.26 187 1029.39 187H1049.94C1058.22 187 1064.94 193.716 1064.94 202V310.582C1064.94 318.867 1058.22 325.582 1049.94 325.582H1030.16C1029.4 325.582 1028.63 325.641 1027.87 325.759L1022.86 326.534C1020.88 326.842 1018.85 326.747 1016.9 326.255L1014.23 325.582L998.864 323.191C998.101 323.072 997.33 323.013 996.558 323.013H986.475H976.097H966.665H956.714C955.427 323.013 954.145 323.178 952.901 323.506L946.876 325.089C945.631 325.417 944.349 325.582 943.062 325.582H924.073C915.788 325.582 909.073 318.867 909.073 310.582V202Z" fill="#0E0B60"/>
</g>
</g>
<defs>
<filter id="filter0_i_259_6660" x="0" y="0" width="367.387" height="329.773" filterUnits="userSpaceOnUse" color-interpolation-filters="sRGB">
<feFlood flood-opacity="0" result="BackgroundImageFix"/>
<feBlend mode="normal" in="SourceGraphic" in2="BackgroundImageFix" result="shape"/>
<feColorMatrix in="SourceAlpha" type="matrix" values="0 0 0 0 0 0 0 0 0 0 0 0 0 0 0 0 0 0 127 0" result="hardAlpha"/>
<feOffset dy="2.5"/>
<feGaussianBlur stdDeviation="3.5"/>
<feComposite in2="hardAlpha" operator="arithmetic" k2="-1" k3="1"/>
<feColorMatrix type="matrix" values="0 0 0 0 0.0745098 0 0 0 0 0.121569 0 0 0 0 0.176471 0 0 0 0.85 0"/>
<feBlend mode="normal" in2="shape" result="effect1_innerShadow_259_6660"/>
</filter>
<filter id="filter1_i_259_6660" x="18.4178" y="33" width="330.373" height="296.8" filterUnits="userSpaceOnUse" color-interpolation-filters="sRGB">
<feFlood flood-opacity="0" result="BackgroundImageFix"/>
<feBlend mode="normal" in="SourceGraphic" in2="BackgroundImageFix" result="shape"/>
<feColorMatrix in="SourceAlpha" type="matrix" values="0 0 0 0 0 0 0 0 0 0 0 0 0 0 0 0 0 0 127 0" result="hardAlpha"/>
<feOffset dy="2.5"/>
<feGaussianBlur stdDeviation="3.5"/>
<feComposite in2="hardAlpha" operator="arithmetic" k2="-1" k3="1"/>
<feColorMatrix type="matrix" values="0 0 0 0 0.0745098 0 0 0 0 0.121569 0 0 0 0 0.176471 0 0 0 0.85 0"/>
<feBlend mode="normal" in2="shape" result="effect1_innerShadow_259_6660"/>
</filter>
<filter id="filter2_i_259_6660" x="34.9786" y="62" width="297.257" height="267.3" filterUnits="userSpaceOnUse" color-interpolation-filters="sRGB">
<feFlood flood-opacity="0" result="BackgroundImageFix"/>
<feBlend mode="normal" in="SourceGraphic" in2="BackgroundImageFix" result="shape"/>
<feColorMatrix in="SourceAlpha" type="matrix" values="0 0 0 0 0 0 0 0 0 0 0 0 0 0 0 0 0 0 127 0" result="hardAlpha"/>
<feOffset dy="2.5"/>
<feGaussianBlur stdDeviation="3.5"/>
<feComposite in2="hardAlpha" operator="arithmetic" k2="-1" k3="1"/>
<feColorMatrix type="matrix" values="0 0 0 0 0.0745098 0 0 0 0 0.121569 0 0 0 0 0.176471 0 0 0 0.85 0"/>
<feBlend mode="normal" in2="shape" result="effect1_innerShadow_259_6660"/>
</filter>
<filter id="filter3_i_259_6660" x="50.5652" y="89" width="267.172" height="240.5" filterUnits="userSpaceOnUse" color-interpolation-filters="sRGB">
<feFlood flood-opacity="0" result="BackgroundImageFix"/>
<feBlend mode="normal" in="SourceGraphic" in2="BackgroundImageFix" result="shape"/>
<feColorMatrix in="SourceAlpha" type="matrix" values="0 0 0 0 0 0 0 0 0 0 0 0 0 0 0 0 0 0 127 0" result="hardAlpha"/>
<feOffset dy="2.5"/>
<feGaussianBlur stdDeviation="3.5"/>
<feComposite in2="hardAlpha" operator="arithmetic" k2="-1" k3="1"/>
<feColorMatrix type="matrix" values="0 0 0 0 0.0745098 0 0 0 0 0.121569 0 0 0 0 0.176471 0 0 0 0.85 0"/>
<feBlend mode="normal" in2="shape" result="effect1_innerShadow_259_6660"/>
</filter>
<filter id="filter4_i_259_6660" x="63.2293" y="112" width="240.792" height="217" filterUnits="userSpaceOnUse" color-interpolation-filters="sRGB">
<feFlood flood-opacity="0" result="BackgroundImageFix"/>
<feBlend mode="normal" in="SourceGraphic" in2="BackgroundImageFix" result="shape"/>
<feColorMatrix in="SourceAlpha" type="matrix" values="0 0 0 0 0 0 0 0 0 0 0 0 0 0 0 0 0 0 127 0" result="hardAlpha"/>
<feOffset dy="2.5"/>
<feGaussianBlur stdDeviation="3.5"/>
<feComposite in2="hardAlpha" operator="arithmetic" k2="-1" k3="1"/>
<feColorMatrix type="matrix" values="0 0 0 0 0.0745098 0 0 0 0 0.121569 0 0 0 0 0.176471 0 0 0 0.85 0"/>
<feBlend mode="normal" in2="shape" result="effect1_innerShadow_259_6660"/>
</filter>
<filter id="filter5_i_259_6660" x="86.6093" y="153" width="194.991" height="176.2" filterUnits="userSpaceOnUse" color-interpolation-filters="sRGB">
<feFlood flood-opacity="0" result="BackgroundImageFix"/>
<feBlend mode="normal" in="SourceGraphic" in2="BackgroundImageFix" result="shape"/>
<feColorMatrix in="SourceAlpha" type="matrix" values="0 0 0 0 0 0 0 0 0 0 0 0 0 0 0 0 0 0 127 0" result="hardAlpha"/>
<feOffset dy="2.5"/>
<feGaussianBlur stdDeviation="3.5"/>
<feComposite in2="hardAlpha" operator="arithmetic" k2="-1" k3="1"/>
<feColorMatrix type="matrix" values="0 0 0 0 0.0745098 0 0 0 0 0.121569 0 0 0 0 0.176471 0 0 0 0.85 0"/>
<feBlend mode="normal" in2="shape" result="effect1_innerShadow_259_6660"/>
</filter>
<filter id="filter6_i_259_6660" x="96.3509" y="171" width="175.57" height="160.21" filterUnits="userSpaceOnUse" color-interpolation-filters="sRGB">
<feFlood flood-opacity="0" result="BackgroundImageFix"/>
<feBlend mode="normal" in="SourceGraphic" in2="BackgroundImageFix" result="shape"/>
<feColorMatrix in="SourceAlpha" type="matrix" values="0 0 0 0 0 0 0 0 0 0 0 0 0 0 0 0 0 0 127 0" result="hardAlpha"/>
<feOffset dy="2.5"/>
<feGaussianBlur stdDeviation="3.5"/>
<feComposite in2="hardAlpha" operator="arithmetic" k2="-1" k3="1"/>
<feColorMatrix type="matrix" values="0 0 0 0 0.0745098 0 0 0 0 0.121569 0 0 0 0 0.176471 0 0 0 0.85 0"/>
<feBlend mode="normal" in2="shape" result="effect1_innerShadow_259_6660"/>
</filter>
<filter id="filter7_i_259_6660" x="107.158" y="188" width="153.918" height="141.208" filterUnits="userSpaceOnUse" color-interpolation-filters="sRGB">
<feFlood flood-opacity="0" result="BackgroundImageFix"/>
<feBlend mode="normal" in="SourceGraphic" in2="BackgroundImageFix" result="shape"/>
<feColorMatrix in="SourceAlpha" type="matrix" values="0 0 0 0 0 0 0 0 0 0 0 0 0 0 0 0 0 0 127 0" result="hardAlpha"/>
<feOffset dy="2.5"/>
<feGaussianBlur stdDeviation="3.5"/>
<feComposite in2="hardAlpha" operator="arithmetic" k2="-1" k3="1"/>
<feColorMatrix type="matrix" values="0 0 0 0 0.0745098 0 0 0 0 0.121569 0 0 0 0 0.176471 0 0 0 0.85 0"/>
<feBlend mode="normal" in2="shape" result="effect1_innerShadow_259_6660"/>
</filter>
<filter id="filter8_i_259_6660" x="407.387" y="0" width="86.5539" height="329.773" filterUnits="userSpaceOnUse" color-interpolation-filters="sRGB">
<feFlood flood-opacity="0" result="BackgroundImageFix"/>
<feBlend mode="normal" in="SourceGraphic" in2="BackgroundImageFix" result="shape"/>
<feColorMatrix in="SourceAlpha" type="matrix" values="0 0 0 0 0 0 0 0 0 0 0 0 0 0 0 0 0 0 127 0" result="hardAlpha"/>
<feOffset dy="2.5"/>
<feGaussianBlur stdDeviation="3.5"/>
<feComposite in2="hardAlpha" operator="arithmetic" k2="-1" k3="1"/>
<feColorMatrix type="matrix" values="0 0 0 0 0.0745098 0 0 0 0 0.121569 0 0 0 0 0.176471 0 0 0 0.85 0"/>
<feBlend mode="normal" in2="shape" result="effect1_innerShadow_259_6660"/>
</filter>
<filter id="filter9_i_259_6660" x="412.166" y="16.2728" width="77.8336" height="296.8" filterUnits="userSpaceOnUse" color-interpolation-filters="sRGB">
<feFlood flood-opacity="0" result="BackgroundImageFix"/>
<feBlend mode="normal" in="SourceGraphic" in2="BackgroundImageFix" result="shape"/>
<feColorMatrix in="SourceAlpha" type="matrix" values="0 0 0 0 0 0 0 0 0 0 0 0 0 0 0 0 0 0 127 0" result="hardAlpha"/>
<feOffset dy="2.5"/>
<feGaussianBlur stdDeviation="3.5"/>
<feComposite in2="hardAlpha" operator="arithmetic" k2="-1" k3="1"/>
<feColorMatrix type="matrix" values="0 0 0 0 0.0745098 0 0 0 0 0.121569 0 0 0 0 0.176471 0 0 0 0.85 0"/>
<feBlend mode="normal" in2="shape" result="effect1_innerShadow_259_6660"/>
</filter>
<filter id="filter10_i_259_6660" x="416.063" y="31.2728" width="70.0317" height="267.3" filterUnits="userSpaceOnUse" color-interpolation-filters="sRGB">
<feFlood flood-opacity="0" result="BackgroundImageFix"/>
<feBlend mode="normal" in="SourceGraphic" in2="BackgroundImageFix" result="shape"/>
<feColorMatrix in="SourceAlpha" type="matrix" values="0 0 0 0 0 0 0 0 0 0 0 0 0 0 0 0 0 0 127 0" result="hardAlpha"/>
<feOffset dy="2.5"/>
<feGaussianBlur stdDeviation="3.5"/>
<feComposite in2="hardAlpha" operator="arithmetic" k2="-1" k3="1"/>
<feColorMatrix type="matrix" values="0 0 0 0 0.0745098 0 0 0 0 0.121569 0 0 0 0 0.176471 0 0 0 0.85 0"/>
<feBlend mode="normal" in2="shape" result="effect1_innerShadow_259_6660"/>
</filter>
<filter id="filter11_i_259_6660" x="419.96" y="44.2728" width="62.9439" height="240.5" filterUnits="userSpaceOnUse" color-interpolation-filters="sRGB">
<feFlood flood-opacity="0" result="BackgroundImageFix"/>
<feBlend mode="normal" in="SourceGraphic" in2="BackgroundImageFix" result="shape"/>
<feColorMatrix in="SourceAlpha" type="matrix" values="0 0 0 0 0 0 0 0 0 0 0 0 0 0 0 0 0 0 127 0" result="hardAlpha"/>
<feOffset dy="2.5"/>
<feGaussianBlur stdDeviation="3.5"/>
<feComposite in2="hardAlpha" operator="arithmetic" k2="-1" k3="1"/>
<feColorMatrix type="matrix" values="0 0 0 0 0.0745098 0 0 0 0 0.121569 0 0 0 0 0.176471 0 0 0 0.85 0"/>
<feBlend mode="normal" in2="shape" result="effect1_innerShadow_259_6660"/>
</filter>
<filter id="filter12_i_259_6660" x="422.882" y="56.2728" width="56.7289" height="217" filterUnits="userSpaceOnUse" color-interpolation-filters="sRGB">
<feFlood flood-opacity="0" result="BackgroundImageFix"/>
<feBlend mode="normal" in="SourceGraphic" in2="BackgroundImageFix" result="shape"/>
<feColorMatrix in="SourceAlpha" type="matrix" values="0 0 0 0 0 0 0 0 0 0 0 0 0 0 0 0 0 0 127 0" result="hardAlpha"/>
<feOffset dy="2.5"/>
<feGaussianBlur stdDeviation="3.5"/>
<feComposite in2="hardAlpha" operator="arithmetic" k2="-1" k3="1"/>
<feColorMatrix type="matrix" values="0 0 0 0 0.0745098 0 0 0 0 0.121569 0 0 0 0 0.176471 0 0 0 0.85 0"/>
<feBlend mode="normal" in2="shape" result="effect1_innerShadow_259_6660"/>
</filter>
<filter id="filter13_i_259_6660" x="427.753" y="76.2728" width="45.9385" height="176.2" filterUnits="userSpaceOnUse" color-interpolation-filters="sRGB">
<feFlood flood-opacity="0" result="BackgroundImageFix"/>
<feBlend mode="normal" in="SourceGraphic" in2="BackgroundImageFix" result="shape"/>
<feColorMatrix in="SourceAlpha" type="matrix" values="0 0 0 0 0 0 0 0 0 0 0 0 0 0 0 0 0 0 127 0" result="hardAlpha"/>
<feOffset dy="2.5"/>
<feGaussianBlur stdDeviation="3.5"/>
<feComposite in2="hardAlpha" operator="arithmetic" k2="-1" k3="1"/>
<feColorMatrix type="matrix" values="0 0 0 0 0.0745098 0 0 0 0 0.121569 0 0 0 0 0.176471 0 0 0 0.85 0"/>
<feBlend mode="normal" in2="shape" result="effect1_innerShadow_259_6660"/>
</filter>
<filter id="filter14_i_259_6660" x="430.676" y="85.2728" width="41.3631" height="158.9" filterUnits="userSpaceOnUse" color-interpolation-filters="sRGB">
<feFlood flood-opacity="0" result="BackgroundImageFix"/>
<feBlend mode="normal" in="SourceGraphic" in2="BackgroundImageFix" result="shape"/>
<feColorMatrix in="SourceAlpha" type="matrix" values="0 0 0 0 0 0 0 0 0 0 0 0 0 0 0 0 0 0 127 0" result="hardAlpha"/>
<feOffset dy="2.5"/>
<feGaussianBlur stdDeviation="3.5"/>
<feComposite in2="hardAlpha" operator="arithmetic" k2="-1" k3="1"/>
<feColorMatrix type="matrix" values="0 0 0 0 0.0745098 0 0 0 0 0.121569 0 0 0 0 0.176471 0 0 0 0.85 0"/>
<feBlend mode="normal" in2="shape" result="effect1_innerShadow_259_6660"/>
</filter>
<filter id="filter15_i_259_6660" x="434.536" y="98" width="34.0957" height="133.5" filterUnits="userSpaceOnUse" color-interpolation-filters="sRGB">
<feFlood flood-opacity="0" result="BackgroundImageFix"/>
<feBlend mode="normal" in="SourceGraphic" in2="BackgroundImageFix" result="shape"/>
<feColorMatrix in="SourceAlpha" type="matrix" values="0 0 0 0 0 0 0 0 0 0 0 0 0 0 0 0 0 0 127 0" result="hardAlpha"/>
<feOffset dy="2.5"/>
<feGaussianBlur stdDeviation="3.5"/>
<feComposite in2="hardAlpha" operator="arithmetic" k2="-1" k3="1"/>
<feColorMatrix type="matrix" values="0 0 0 0 0.0745098 0 0 0 0 0.121569 0 0 0 0 0.176471 0 0 0 0.85 0"/>
<feBlend mode="normal" in2="shape" result="effect1_innerShadow_259_6660"/>
</filter>
<filter id="filter16_i_259_6660" x="533.941" y="-1" width="229.773" height="329.773" filterUnits="userSpaceOnUse" color-interpolation-filters="sRGB">
<feFlood flood-opacity="0" result="BackgroundImageFix"/>
<feBlend mode="normal" in="SourceGraphic" in2="BackgroundImageFix" result="shape"/>
<feColorMatrix in="SourceAlpha" type="matrix" values="0 0 0 0 0 0 0 0 0 0 0 0 0 0 0 0 0 0 127 0" result="hardAlpha"/>
<feOffset dy="2.5"/>
<feGaussianBlur stdDeviation="3.5"/>
<feComposite in2="hardAlpha" operator="arithmetic" k2="-1" k3="1"/>
<feColorMatrix type="matrix" values="0 0 0 0 0.0745098 0 0 0 0 0.121569 0 0 0 0 0.176471 0 0 0 0.85 0"/>
<feBlend mode="normal" in2="shape" result="effect1_innerShadow_259_6660"/>
</filter>
<filter id="filter17_i_259_6660" x="545.539" y="15.2728" width="206.623" height="296.8" filterUnits="userSpaceOnUse" color-interpolation-filters="sRGB">
<feFlood flood-opacity="0" result="BackgroundImageFix"/>
<feBlend mode="normal" in="SourceGraphic" in2="BackgroundImageFix" result="shape"/>
<feColorMatrix in="SourceAlpha" type="matrix" values="0 0 0 0 0 0 0 0 0 0 0 0 0 0 0 0 0 0 127 0" result="hardAlpha"/>
<feOffset dy="2.5"/>
<feGaussianBlur stdDeviation="3.5"/>
<feComposite in2="hardAlpha" operator="arithmetic" k2="-1" k3="1"/>
<feColorMatrix type="matrix" values="0 0 0 0 0.0745098 0 0 0 0 0.121569 0 0 0 0 0.176471 0 0 0 0.85 0"/>
<feBlend mode="normal" in2="shape" result="effect1_innerShadow_259_6660"/>
</filter>
<filter id="filter18_i_259_6660" x="552.359" y="30.2728" width="185.912" height="267.3" filterUnits="userSpaceOnUse" color-interpolation-filters="sRGB">
<feFlood flood-opacity="0" result="BackgroundImageFix"/>
<feBlend mode="normal" in="SourceGraphic" in2="BackgroundImageFix" result="shape"/>
<feColorMatrix in="SourceAlpha" type="matrix" values="0 0 0 0 0 0 0 0 0 0 0 0 0 0 0 0 0 0 127 0" result="hardAlpha"/>
<feOffset dy="2.5"/>
<feGaussianBlur stdDeviation="3.5"/>
<feComposite in2="hardAlpha" operator="arithmetic" k2="-1" k3="1"/>
<feColorMatrix type="matrix" values="0 0 0 0 0.0745098 0 0 0 0 0.121569 0 0 0 0 0.176471 0 0 0 0.85 0"/>
<feBlend mode="normal" in2="shape" result="effect1_innerShadow_259_6660"/>
</filter>
<filter id="filter19_i_259_6660" x="557.229" y="43.2728" width="167.096" height="240.5" filterUnits="userSpaceOnUse" color-interpolation-filters="sRGB">
<feFlood flood-opacity="0" result="BackgroundImageFix"/>
<feBlend mode="normal" in="SourceGraphic" in2="BackgroundImageFix" result="shape"/>
<feColorMatrix in="SourceAlpha" type="matrix" values="0 0 0 0 0 0 0 0 0 0 0 0 0 0 0 0 0 0 127 0" result="hardAlpha"/>
<feOffset dy="2.5"/>
<feGaussianBlur stdDeviation="3.5"/>
<feComposite in2="hardAlpha" operator="arithmetic" k2="-1" k3="1"/>
<feColorMatrix type="matrix" values="0 0 0 0 0.0745098 0 0 0 0 0.121569 0 0 0 0 0.176471 0 0 0 0.85 0"/>
<feBlend mode="normal" in2="shape" result="effect1_innerShadow_259_6660"/>
</filter>
<filter id="filter20_i_259_6660" x="563.074" y="55.2728" width="150.597" height="217" filterUnits="userSpaceOnUse" color-interpolation-filters="sRGB">
<feFlood flood-opacity="0" result="BackgroundImageFix"/>
<feBlend mode="normal" in="SourceGraphic" in2="BackgroundImageFix" result="shape"/>
<feColorMatrix in="SourceAlpha" type="matrix" values="0 0 0 0 0 0 0 0 0 0 0 0 0 0 0 0 0 0 127 0" result="hardAlpha"/>
<feOffset dy="2.5"/>
<feGaussianBlur stdDeviation="3.5"/>
<feComposite in2="hardAlpha" operator="arithmetic" k2="-1" k3="1"/>
<feColorMatrix type="matrix" values="0 0 0 0 0.0745098 0 0 0 0 0.121569 0 0 0 0 0.176471 0 0 0 0.85 0"/>
<feBlend mode="normal" in2="shape" result="effect1_innerShadow_259_6660"/>
</filter>
<filter id="filter21_i_259_6660" x="572.816" y="75.2728" width="121.952" height="176.2" filterUnits="userSpaceOnUse" color-interpolation-filters="sRGB">
<feFlood flood-opacity="0" result="BackgroundImageFix"/>
<feBlend mode="normal" in="SourceGraphic" in2="BackgroundImageFix" result="shape"/>
<feColorMatrix in="SourceAlpha" type="matrix" values="0 0 0 0 0 0 0 0 0 0 0 0 0 0 0 0 0 0 127 0" result="hardAlpha"/>
<feOffset dy="2.5"/>
<feGaussianBlur stdDeviation="3.5"/>
<feComposite in2="hardAlpha" operator="arithmetic" k2="-1" k3="1"/>
<feColorMatrix type="matrix" values="0 0 0 0 0.0745098 0 0 0 0 0.121569 0 0 0 0 0.176471 0 0 0 0.85 0"/>
<feBlend mode="normal" in2="shape" result="effect1_innerShadow_259_6660"/>
</filter>
<filter id="filter22_i_259_6660" x="577.687" y="84.2728" width="109.806" height="158.9" filterUnits="userSpaceOnUse" color-interpolation-filters="sRGB">
<feFlood flood-opacity="0" result="BackgroundImageFix"/>
<feBlend mode="normal" in="SourceGraphic" in2="BackgroundImageFix" result="shape"/>
<feColorMatrix in="SourceAlpha" type="matrix" values="0 0 0 0 0 0 0 0 0 0 0 0 0 0 0 0 0 0 127 0" result="hardAlpha"/>
<feOffset dy="2.5"/>
<feGaussianBlur stdDeviation="3.5"/>
<feComposite in2="hardAlpha" operator="arithmetic" k2="-1" k3="1"/>
<feColorMatrix type="matrix" values="0 0 0 0 0.0745098 0 0 0 0 0.121569 0 0 0 0 0.176471 0 0 0 0.85 0"/>
<feBlend mode="normal" in2="shape" result="effect1_innerShadow_259_6660"/>
</filter>
<filter id="filter23_i_259_6660" x="579.746" y="94" width="98.3905" height="142.5" filterUnits="userSpaceOnUse" color-interpolation-filters="sRGB">
<feFlood flood-opacity="0" result="BackgroundImageFix"/>
<feBlend mode="normal" in="SourceGraphic" in2="BackgroundImageFix" result="shape"/>
<feColorMatrix in="SourceAlpha" type="matrix" values="0 0 0 0 0 0 0 0 0 0 0 0 0 0 0 0 0 0 127 0" result="hardAlpha"/>
<feOffset dy="2.5"/>
<feGaussianBlur stdDeviation="3.5"/>
<feComposite in2="hardAlpha" operator="arithmetic" k2="-1" k3="1"/>
<feColorMatrix type="matrix" values="0 0 0 0 0.0745098 0 0 0 0 0.121569 0 0 0 0 0.176471 0 0 0 0.85 0"/>
<feBlend mode="normal" in2="shape" result="effect1_innerShadow_259_6660"/>
</filter>
<filter id="filter24_i_259_6660" x="803.713" y="0" width="367.387" height="329.773" filterUnits="userSpaceOnUse" color-interpolation-filters="sRGB">
<feFlood flood-opacity="0" result="BackgroundImageFix"/>
<feBlend mode="normal" in="SourceGraphic" in2="BackgroundImageFix" result="shape"/>
<feColorMatrix in="SourceAlpha" type="matrix" values="0 0 0 0 0 0 0 0 0 0 0 0 0 0 0 0 0 0 127 0" result="hardAlpha"/>
<feOffset dy="2.5"/>
<feGaussianBlur stdDeviation="3.5"/>
<feComposite in2="hardAlpha" operator="arithmetic" k2="-1" k3="1"/>
<feColorMatrix type="matrix" values="0 0 0 0 0.0745098 0 0 0 0 0.121569 0 0 0 0 0.176471 0 0 0 0.85 0"/>
<feBlend mode="normal" in2="shape" result="effect1_innerShadow_259_6660"/>
</filter>
<filter id="filter25_i_259_6660" x="822.131" y="33" width="330.373" height="296.8" filterUnits="userSpaceOnUse" color-interpolation-filters="sRGB">
<feFlood flood-opacity="0" result="BackgroundImageFix"/>
<feBlend mode="normal" in="SourceGraphic" in2="BackgroundImageFix" result="shape"/>
<feColorMatrix in="SourceAlpha" type="matrix" values="0 0 0 0 0 0 0 0 0 0 0 0 0 0 0 0 0 0 127 0" result="hardAlpha"/>
<feOffset dy="2.5"/>
<feGaussianBlur stdDeviation="3.5"/>
<feComposite in2="hardAlpha" operator="arithmetic" k2="-1" k3="1"/>
<feColorMatrix type="matrix" values="0 0 0 0 0.0745098 0 0 0 0 0.121569 0 0 0 0 0.176471 0 0 0 0.85 0"/>
<feBlend mode="normal" in2="shape" result="effect1_innerShadow_259_6660"/>
</filter>
<filter id="filter26_i_259_6660" x="838.692" y="62" width="297.257" height="267.3" filterUnits="userSpaceOnUse" color-interpolation-filters="sRGB">
<feFlood flood-opacity="0" result="BackgroundImageFix"/>
<feBlend mode="normal" in="SourceGraphic" in2="BackgroundImageFix" result="shape"/>
<feColorMatrix in="SourceAlpha" type="matrix" values="0 0 0 0 0 0 0 0 0 0 0 0 0 0 0 0 0 0 127 0" result="hardAlpha"/>
<feOffset dy="2.5"/>
<feGaussianBlur stdDeviation="3.5"/>
<feComposite in2="hardAlpha" operator="arithmetic" k2="-1" k3="1"/>
<feColorMatrix type="matrix" values="0 0 0 0 0.0745098 0 0 0 0 0.121569 0 0 0 0 0.176471 0 0 0 0.85 0"/>
<feBlend mode="normal" in2="shape" result="effect1_innerShadow_259_6660"/>
</filter>
<filter id="filter27_i_259_6660" x="854.279" y="89" width="267.172" height="240.5" filterUnits="userSpaceOnUse" color-interpolation-filters="sRGB">
<feFlood flood-opacity="0" result="BackgroundImageFix"/>
<feBlend mode="normal" in="SourceGraphic" in2="BackgroundImageFix" result="shape"/>
<feColorMatrix in="SourceAlpha" type="matrix" values="0 0 0 0 0 0 0 0 0 0 0 0 0 0 0 0 0 0 127 0" result="hardAlpha"/>
<feOffset dy="2.5"/>
<feGaussianBlur stdDeviation="3.5"/>
<feComposite in2="hardAlpha" operator="arithmetic" k2="-1" k3="1"/>
<feColorMatrix type="matrix" values="0 0 0 0 0.0745098 0 0 0 0 0.121569 0 0 0 0 0.176471 0 0 0 0.85 0"/>
<feBlend mode="normal" in2="shape" result="effect1_innerShadow_259_6660"/>
</filter>
<filter id="filter28_i_259_6660" x="866.943" y="112" width="240.792" height="217" filterUnits="userSpaceOnUse" color-interpolation-filters="sRGB">
<feFlood flood-opacity="0" result="BackgroundImageFix"/>
<feBlend mode="normal" in="SourceGraphic" in2="BackgroundImageFix" result="shape"/>
<feColorMatrix in="SourceAlpha" type="matrix" values="0 0 0 0 0 0 0 0 0 0 0 0 0 0 0 0 0 0 127 0" result="hardAlpha"/>
<feOffset dy="2.5"/>
<feGaussianBlur stdDeviation="3.5"/>
<feComposite in2="hardAlpha" operator="arithmetic" k2="-1" k3="1"/>
<feColorMatrix type="matrix" values="0 0 0 0 0.0745098 0 0 0 0 0.121569 0 0 0 0 0.176471 0 0 0 0.85 0"/>
<feBlend mode="normal" in2="shape" result="effect1_innerShadow_259_6660"/>
</filter>
<filter id="filter29_i_259_6660" x="890.323" y="153" width="194.991" height="176.2" filterUnits="userSpaceOnUse" color-interpolation-filters="sRGB">
<feFlood flood-opacity="0" result="BackgroundImageFix"/>
<feBlend mode="normal" in="SourceGraphic" in2="BackgroundImageFix" result="shape"/>
<feColorMatrix in="SourceAlpha" type="matrix" values="0 0 0 0 0 0 0 0 0 0 0 0 0 0 0 0 0 0 127 0" result="hardAlpha"/>
<feOffset dy="2.5"/>
<feGaussianBlur stdDeviation="3.5"/>
<feComposite in2="hardAlpha" operator="arithmetic" k2="-1" k3="1"/>
<feColorMatrix type="matrix" values="0 0 0 0 0.0745098 0 0 0 0 0.121569 0 0 0 0 0.176471 0 0 0 0.85 0"/>
<feBlend mode="normal" in2="shape" result="effect1_innerShadow_259_6660"/>
</filter>
<filter id="filter30_i_259_6660" x="900.064" y="171" width="175.57" height="160.21" filterUnits="userSpaceOnUse" color-interpolation-filters="sRGB">
<feFlood flood-opacity="0" result="BackgroundImageFix"/>
<feBlend mode="normal" in="SourceGraphic" in2="BackgroundImageFix" result="shape"/>
<feColorMatrix in="SourceAlpha" type="matrix" values="0 0 0 0 0 0 0 0 0 0 0 0 0 0 0 0 0 0 127 0" result="hardAlpha"/>
<feOffset dy="2.5"/>
<feGaussianBlur stdDeviation="3.5"/>
<feComposite in2="hardAlpha" operator="arithmetic" k2="-1" k3="1"/>
<feColorMatrix type="matrix" values="0 0 0 0 0.0745098 0 0 0 0 0.121569 0 0 0 0 0.176471 0 0 0 0.85 0"/>
<feBlend mode="normal" in2="shape" result="effect1_innerShadow_259_6660"/>
</filter>
<filter id="filter31_i_259_6660" x="909.073" y="187" width="155.866" height="142.211" filterUnits="userSpaceOnUse" color-interpolation-filters="sRGB">
<feFlood flood-opacity="0" result="BackgroundImageFix"/>
<feBlend mode="normal" in="SourceGraphic" in2="BackgroundImageFix" result="shape"/>
<feColorMatrix in="SourceAlpha" type="matrix" values="0 0 0 0 0 0 0 0 0 0 0 0 0 0 0 0 0 0 127 0" result="hardAlpha"/>
<feOffset dy="2.5"/>
<feGaussianBlur stdDeviation="3.5"/>
<feComposite in2="hardAlpha" operator="arithmetic" k2="-1" k3="1"/>
<feColorMatrix type="matrix" values="0 0 0 0 0.0745098 0 0 0 0 0.121569 0 0 0 0 0.176471 0 0 0 0.85 0"/>
<feBlend mode="normal" in2="shape" result="effect1_innerShadow_259_6660"/>
</filter>
</defs>
</svg>
