<svg width="1180" height="336" viewBox="0 0 1180 336" fill="none" xmlns="http://www.w3.org/2000/svg">
<g filter="url(#filter0_d_708_142)">
<mask id="mask0_708_142" style="mask-type:alpha" maskUnits="userSpaceOnUse" x="4" y="4" width="368" height="328">
<path d="M4 19C4 10.7157 10.7157 4 19 4H101.567C107.702 4 113.219 7.73572 115.496 13.4322L185.132 187.635C185.551 188.682 186.565 189.369 187.694 189.369V189.369C188.822 189.369 189.836 188.682 190.255 187.635L259.891 13.4322C262.168 7.73571 267.685 4 273.82 4H356.387C364.671 4 371.387 10.7157 371.387 19V316.273C371.387 324.557 364.671 331.273 356.387 331.273H301.701C293.417 331.273 286.701 324.557 286.701 316.273V143.542C286.701 142.728 286.041 142.068 285.227 142.068V142.068C284.615 142.068 284.067 142.446 283.849 143.018L216.901 319.048C214.687 324.869 209.108 328.716 202.88 328.716H172.532C166.292 328.716 160.704 324.853 158.499 319.016L91.5363 141.742C91.3198 141.169 90.7712 140.79 90.1586 140.79V140.79C89.3452 140.79 88.6858 141.449 88.6858 142.263V316.273C88.6858 324.557 81.9701 331.273 73.6858 331.273H19C10.7157 331.273 4 324.557 4 316.273V19Z" fill="black"/>
</mask>
<g mask="url(#mask0_708_142)">
<g filter="url(#filter1_i_708_142)">
<path d="M4 19C4 10.7157 10.7157 4 19 4H101.567C107.702 4 113.219 7.73572 115.496 13.4322L185.132 187.635C185.551 188.682 186.565 189.369 187.694 189.369V189.369C188.822 189.369 189.836 188.682 190.255 187.635L259.891 13.4322C262.168 7.73571 267.685 4 273.82 4H356.387C364.671 4 371.387 10.7157 371.387 19V316.273C371.387 324.557 364.671 331.273 356.387 331.273H301.701C293.417 331.273 286.701 324.557 286.701 316.273V143.542C286.701 142.728 286.041 142.068 285.227 142.068V142.068C284.615 142.068 284.067 142.446 283.849 143.018L216.901 319.048C214.687 324.869 209.108 328.716 202.88 328.716H172.532C166.292 328.716 160.704 324.853 158.499 319.016L91.5363 141.742C91.3198 141.169 90.7712 140.79 90.1586 140.79V140.79C89.3452 140.79 88.6858 141.449 88.6858 142.263V316.273C88.6858 324.557 81.9701 331.273 73.6858 331.273H19C10.7157 331.273 4 324.557 4 316.273V19Z" fill="#B8B1F7"/>
</g>
<g filter="url(#filter2_i_708_142)">
<path d="M22.4178 52C22.4178 43.7157 29.1335 37 37.4178 37H109.132C115.267 37 120.783 40.7357 123.06 46.4322L185.301 202.133C185.677 203.076 186.59 203.693 187.604 203.693V203.693C188.619 203.693 189.531 203.076 189.908 202.133L252.148 46.4322C254.425 40.7357 259.942 37 266.076 37H337.791C346.075 37 352.791 43.7157 352.791 52V316.3C352.791 324.584 346.075 331.3 337.791 331.3H291.637C283.353 331.3 276.637 324.584 276.637 316.3V162.483C276.637 161.751 276.043 161.158 275.311 161.158V161.158C274.761 161.158 274.268 161.498 274.072 162.012L214.239 319.333C212.026 325.153 206.446 329.001 200.219 329.001H175.014C168.775 329.001 163.187 325.138 160.982 319.301L101.135 160.865C100.94 160.349 100.447 160.008 99.8959 160.008V160.008C99.1645 160.008 98.5715 160.601 98.5715 161.333V316.3C98.5715 324.584 91.8558 331.3 83.5715 331.3H37.4178C29.1335 331.3 22.4178 324.584 22.4178 316.3V52Z" fill="#9185E3"/>
</g>
<g filter="url(#filter3_i_708_142)">
<path d="M38.9786 81C38.9786 72.7157 45.6943 66 53.9786 66H115.982C122.117 66 127.634 69.7357 129.911 75.4322L185.535 214.581C185.873 215.429 186.694 215.984 187.607 215.984V215.984C188.52 215.984 189.341 215.429 189.68 214.581L245.303 75.4322C247.58 69.7357 253.097 66 259.232 66H321.235C329.52 66 336.235 72.7157 336.235 81V315.8C336.235 324.084 329.52 330.8 321.235 330.8H282.715C274.431 330.8 267.715 324.084 267.715 315.8V178.905C267.715 178.247 267.181 177.713 266.522 177.713V177.713C266.027 177.713 265.584 178.018 265.408 178.481L211.941 319.063C209.727 324.884 204.148 328.731 197.921 328.731H177.319C171.079 328.731 165.491 324.869 163.286 319.032L109.805 177.449C109.63 176.985 109.186 176.678 108.69 176.678V176.678C108.032 176.678 107.499 177.212 107.499 177.87V315.8C107.499 324.084 100.783 330.8 92.4988 330.8H53.9786C45.6943 330.8 38.9786 324.084 38.9786 315.8V81Z" fill="#5452D4"/>
</g>
<g filter="url(#filter4_i_708_142)">
<path d="M54.5652 108C54.5652 99.7157 61.2809 93 69.5652 93H122.748C128.882 93 134.399 96.7357 136.676 102.432L186.288 226.543C186.593 227.305 187.331 227.805 188.151 227.805V227.805C188.972 227.805 189.709 227.305 190.014 226.543L239.626 102.432C241.904 96.7357 247.42 93 253.555 93H306.737C315.021 93 321.737 99.7157 321.737 108V316C321.737 324.284 315.021 331 306.737 331H275.152C266.867 331 260.152 324.284 260.152 316V194.478C260.152 193.886 259.672 193.406 259.08 193.406V193.406C258.635 193.406 258.236 193.681 258.078 194.097L210.394 319.473C208.181 325.293 202.601 329.141 196.374 329.141H179.953C173.714 329.141 168.126 325.278 165.921 319.441L118.224 193.169C118.066 192.752 117.667 192.477 117.222 192.477V192.477C116.63 192.477 116.151 192.956 116.151 193.548V316C116.151 324.284 109.435 331 101.151 331H69.5652C61.2809 331 54.5652 324.284 54.5652 316V108Z" fill="#372DC0"/>
</g>
<g filter="url(#filter5_i_708_142)">
<path d="M67.2293 131C67.2293 122.716 73.945 116 82.2293 116H127.676C133.811 116 139.328 119.736 141.605 125.432L185.946 236.357C186.221 237.044 186.886 237.494 187.625 237.494V237.494C188.365 237.494 189.029 237.044 189.304 236.357L233.645 125.432C235.923 119.736 241.439 116 247.574 116H293.021C301.305 116 308.021 122.716 308.021 131V315.5C308.021 323.784 301.305 330.5 293.021 330.5H267.516C259.232 330.5 252.516 323.784 252.516 315.5V207.458C252.516 206.925 252.084 206.492 251.55 206.492V206.492C251.149 206.492 250.79 206.74 250.647 207.115L208.035 319.156C205.821 324.977 200.242 328.824 194.015 328.824H181.261C175.021 328.824 169.433 324.962 167.228 319.125L124.602 206.278C124.46 205.903 124.101 205.654 123.699 205.654V205.654C123.166 205.654 122.734 206.086 122.734 206.62V315.5C122.734 323.784 116.018 330.5 107.734 330.5H82.2293C73.945 330.5 67.2293 323.784 67.2293 315.5V131Z" fill="#2717BB"/>
</g>
<g filter="url(#filter6_i_708_142)">
<path d="M90.6093 172C90.6093 163.716 97.325 157 105.609 157H137.627C143.761 157 149.278 160.736 151.555 166.432L186.745 254.464C186.967 255.02 187.506 255.385 188.105 255.385V255.385C188.703 255.385 189.242 255.02 189.464 254.464L224.654 166.432C226.931 160.736 232.448 157 238.583 157H270.6C278.884 157 285.6 163.716 285.6 172V315.7C285.6 323.984 278.884 330.7 270.6 330.7H255.653C247.369 330.7 240.653 323.984 240.653 315.7V231.062C240.653 230.63 240.303 230.28 239.87 230.28V230.28C239.546 230.28 239.255 230.48 239.139 230.784L205.332 319.675C203.118 325.496 197.539 329.343 191.311 329.343H184.923C178.683 329.343 173.095 325.48 170.891 319.643L137.069 230.107C136.954 229.802 136.663 229.601 136.338 229.601V229.601C135.906 229.601 135.556 229.951 135.556 230.383V315.7C135.556 323.984 128.841 330.7 120.556 330.7H105.609C97.325 330.7 90.6093 323.984 90.6093 315.7V172Z" fill="#16119E"/>
</g>
<g filter="url(#filter7_i_708_142)">
<path d="M100.351 190C100.351 181.716 107.067 175 115.351 175H141.674C147.808 175 153.325 178.736 155.602 184.432L186.912 262.757C187.112 263.258 187.597 263.586 188.136 263.586V263.586C188.675 263.586 189.16 263.258 189.36 262.757L220.67 184.432C222.947 178.736 228.463 175 234.598 175H260.921C269.205 175 275.921 181.716 275.921 190V316.4C275.921 324.684 269.205 331.4 260.921 331.4H236.607C235.837 331.4 235.069 331.459 234.308 331.577L228.151 332.532C226.161 332.841 224.129 332.746 222.177 332.252L218.803 331.4L201.351 328.679C200.587 328.56 199.814 328.5 199.04 328.5H187.539H175.849H165.224H153.774C152.484 328.5 151.2 328.666 149.953 328.995L142.7 330.905C141.453 331.234 140.168 331.4 138.879 331.4H115.351C107.067 331.4 100.351 324.684 100.351 316.4V190Z" fill="#171382"/>
</g>
<g filter="url(#filter8_i_708_142)">
<path d="M111.158 207C111.158 198.716 117.874 192 126.158 192H146.119C152.26 192 157.781 195.744 160.054 201.449L187.045 269.206C187.22 269.645 187.644 269.933 188.117 269.933V269.933C188.59 269.933 189.014 269.645 189.189 269.206L216.18 201.449C218.453 195.744 223.974 192 230.115 192H250.076C258.36 192 265.076 198.716 265.076 207V314.592C265.076 322.877 258.36 329.592 250.076 329.592H230.757C229.984 329.592 229.213 329.652 228.45 329.771L223.579 330.529C221.582 330.84 219.544 330.744 217.585 330.247L215.002 329.592L199.848 327.221C199.081 327.101 198.306 327.041 197.529 327.041H187.593H177.345H168.031H158.239C156.945 327.041 155.657 327.209 154.406 327.539L148.522 329.094C147.271 329.425 145.982 329.592 144.689 329.592H126.158C117.874 329.592 111.158 322.877 111.158 314.592V207Z" fill="#0E0B60"/>
</g>
</g>
<mask id="mask1_708_142" style="mask-type:alpha" maskUnits="userSpaceOnUse" x="411" y="4" width="87" height="328">
<path d="M482.941 4C491.225 4 497.941 10.7157 497.941 19V316.273C497.941 324.557 491.225 331.273 482.941 331.273H426.387C418.103 331.273 411.387 324.557 411.387 316.273V19C411.387 10.7157 418.103 4 426.387 4H482.941Z" fill="black"/>
</mask>
<g mask="url(#mask1_708_142)">
<g filter="url(#filter9_i_708_142)">
<path d="M482.941 4C491.225 4 497.941 10.7157 497.941 19V316.273C497.941 324.557 491.225 331.273 482.941 331.273H426.387C418.103 331.273 411.387 324.557 411.387 316.273V19C411.387 10.7157 418.103 4 426.387 4H482.941Z" fill="#B8B1F7"/>
</g>
<g filter="url(#filter10_i_708_142)">
<path d="M479 20.2728C487.284 20.2728 494 26.9885 494 35.2728V299.573C494 307.857 487.284 314.573 479 314.573H431.167C422.882 314.573 416.167 307.857 416.167 299.573V35.2728C416.167 26.9885 422.882 20.2728 431.167 20.2728H479Z" fill="#9185E3"/>
</g>
<g filter="url(#filter11_i_708_142)">
<path d="M475.095 35.2728C483.379 35.2728 490.095 41.9885 490.095 50.2728V285.073C490.095 293.357 483.379 300.073 475.095 300.073H435.063C426.779 300.073 420.063 293.357 420.063 285.073V50.2728C420.063 41.9885 426.779 35.2728 435.063 35.2728H475.095Z" fill="#5452D4"/>
</g>
<g filter="url(#filter12_i_708_142)">
<path d="M471.904 48.2728C480.188 48.2728 486.904 54.9885 486.904 63.2728V271.273C486.904 279.557 480.188 286.273 471.904 286.273H438.96C430.675 286.273 423.96 279.557 423.96 271.273V63.2728C423.96 54.9885 430.675 48.2728 438.96 48.2728H471.904Z" fill="#372DC0"/>
</g>
<g filter="url(#filter13_i_708_142)">
<path d="M468.611 60.2728C476.895 60.2728 483.611 66.9885 483.611 75.2728V259.773C483.611 268.057 476.895 274.773 468.611 274.773H441.882C433.598 274.773 426.882 268.057 426.882 259.773V75.2728C426.882 66.9885 433.598 60.2728 441.882 60.2728H468.611Z" fill="#2717BB"/>
</g>
<g filter="url(#filter14_i_708_142)">
<path d="M462.692 80.2728C470.976 80.2728 477.692 86.9885 477.692 95.2728V238.973C477.692 247.257 470.976 253.973 462.692 253.973H446.753C438.469 253.973 431.753 247.257 431.753 238.973V95.2727C431.753 86.9885 438.469 80.2728 446.753 80.2728H462.692Z" fill="#16119E"/>
</g>
<g filter="url(#filter15_i_708_142)">
<path d="M461.039 89.2728C469.323 89.2728 476.039 95.9885 476.039 104.273V230.673C476.039 238.957 469.323 245.673 461.039 245.673H449.676C441.391 245.673 434.676 238.957 434.676 230.673V104.273C434.676 95.9885 441.391 89.2728 449.676 89.2728H461.039Z" fill="#171382"/>
</g>
<g filter="url(#filter16_i_708_142)">
<path d="M457.632 102C465.916 102 472.632 108.716 472.632 117V218C472.632 226.284 465.916 233 457.632 233H453.536C445.252 233 438.536 226.284 438.536 218V117C438.536 108.716 445.252 102 453.536 102H457.632Z" fill="#0E0B60"/>
</g>
</g>
<mask id="mask2_708_142" style="mask-type:alpha" maskUnits="userSpaceOnUse" x="537" y="4" width="231" height="328">
<path d="M537.941 331.273V4H767.713V75.5909H624.495V131.841H755.882V203.432H624.495V259.682H767.091V331.273H537.941Z" fill="black"/>
</mask>
<g mask="url(#mask2_708_142)">
<g filter="url(#filter17_i_708_142)">
<path d="M552.941 330.273C544.657 330.273 537.941 323.557 537.941 315.273V18C537.941 9.71573 544.657 3 552.941 3H752.713C760.998 3 767.713 9.71573 767.713 18V59.5909C767.713 67.8752 760.998 74.5909 752.713 74.5909H639.495C631.211 74.5909 624.495 81.3066 624.495 89.5909V115.841C624.495 124.125 631.211 130.841 639.495 130.841H740.882C749.167 130.841 755.882 137.557 755.882 145.841V187.432C755.882 195.716 749.167 202.432 740.882 202.432H639.495C631.211 202.432 624.495 209.148 624.495 217.432V243.682C624.495 251.966 631.211 258.682 639.495 258.682H752.091C760.375 258.682 767.091 265.398 767.091 273.682V315.273C767.091 323.557 760.375 330.273 752.091 330.273H552.941Z" fill="#B8B1F7"/>
</g>
<g filter="url(#filter18_i_708_142)">
<path d="M564.54 313.573C556.255 313.573 549.54 306.857 549.54 298.573V34.2728C549.54 25.9885 556.255 19.2728 564.54 19.2728H741.163C749.447 19.2728 756.163 25.9885 756.163 34.2728V68.6509C756.163 76.9352 749.447 83.6509 741.163 83.6509H642.373C634.089 83.6509 627.373 90.3666 627.373 98.6509V119.234C627.373 127.518 634.089 134.234 642.373 134.234H730.523C738.808 134.234 745.523 140.949 745.523 149.234V183.612C745.523 191.896 738.808 198.612 730.523 198.612H642.373C634.089 198.612 627.373 205.328 627.373 213.612V234.195C627.373 242.479 634.089 249.195 642.373 249.195H740.603C748.887 249.195 755.603 255.91 755.603 264.195V298.573C755.603 306.857 748.887 313.573 740.603 313.573H564.54Z" fill="#9185E3"/>
</g>
<g filter="url(#filter19_i_708_142)">
<path d="M571.359 299.073C563.074 299.073 556.359 292.357 556.359 284.073V49.2728C556.359 40.9885 563.074 34.2728 571.359 34.2728H727.27C735.554 34.2728 742.27 40.9885 742.27 49.2728V77.1978C742.27 85.4821 735.554 92.1978 727.27 92.1978H641.39C633.106 92.1978 626.39 98.9135 626.39 107.198V122.71C626.39 130.995 633.106 137.71 641.39 137.71H717.697C725.982 137.71 732.697 144.426 732.697 152.71V180.635C732.697 188.92 725.982 195.635 717.697 195.635H641.39C633.106 195.635 626.39 202.351 626.39 210.635V226.148C626.39 234.432 633.106 241.148 641.39 241.148H726.766C735.051 241.148 741.766 247.863 741.766 256.148V284.073C741.766 292.357 735.051 299.073 726.766 299.073H571.359Z" fill="#5452D4"/>
</g>
<g filter="url(#filter20_i_708_142)">
<path d="M576.229 285.273C567.945 285.273 561.229 278.557 561.229 270.273V62.2728C561.229 53.9885 567.945 47.2728 576.229 47.2728H713.325C721.609 47.2728 728.325 53.9885 728.325 62.2728V84.3353C728.325 92.6195 721.609 99.3353 713.325 99.3353H639.173C630.889 99.3353 624.173 106.051 624.173 114.335V125.242C624.173 133.526 630.889 140.242 639.173 140.242H704.721C713.006 140.242 719.721 146.957 719.721 155.242V177.304C719.721 185.588 713.006 192.304 704.721 192.304H639.173C630.889 192.304 624.173 199.02 624.173 207.304V218.21C624.173 226.495 630.889 233.21 639.173 233.21H712.872C721.157 233.21 727.872 239.926 727.872 248.21V270.273C727.872 278.557 721.157 285.273 712.872 285.273H576.229Z" fill="#372DC0"/>
</g>
<g filter="url(#filter21_i_708_142)">
<path d="M582.074 273.773C573.79 273.773 567.074 267.057 567.074 258.773V74.2728C567.074 65.9885 573.79 59.2728 582.074 59.2728H702.671C710.955 59.2728 717.671 65.9885 717.671 74.2728V91.1946C717.671 99.4789 710.955 106.195 702.671 106.195H638.803C630.519 106.195 623.803 112.91 623.803 121.195V128.062C623.803 136.346 630.519 143.062 638.803 143.062H694.917C703.201 143.062 709.917 149.778 709.917 158.062V174.984C709.917 183.268 703.201 189.984 694.917 189.984H638.803C630.519 189.984 623.803 196.699 623.803 204.984V211.851C623.803 220.135 630.519 226.851 638.803 226.851H702.263C710.547 226.851 717.263 233.567 717.263 241.851V258.773C717.263 267.057 710.547 273.773 702.263 273.773H582.074Z" fill="#2717BB"/>
</g>
<g filter="url(#filter22_i_708_142)">
<path d="M591.816 252.973C583.532 252.973 576.816 246.257 576.816 237.973V94.2727C576.816 85.9885 583.532 79.2728 591.816 79.2728H683.768C692.052 79.2728 698.768 85.9885 698.768 94.2728V102.27C698.768 110.554 692.052 117.27 683.768 117.27H637.682C629.438 117.27 622.755 123.953 622.755 132.197V132.197C622.755 140.441 629.438 147.124 637.682 147.124H677.489C685.773 147.124 692.489 153.84 692.489 162.124V170.121C692.489 178.405 685.773 185.121 677.489 185.121H637.682C629.438 185.121 622.755 191.804 622.755 200.049V200.049C622.755 208.293 629.438 214.976 637.682 214.976H683.437C691.722 214.976 698.437 221.692 698.437 229.976V237.973C698.437 246.257 691.722 252.973 683.437 252.973H591.816Z" fill="#16119E"/>
</g>
<g filter="url(#filter23_i_708_142)">
<path d="M596.687 244.673C588.403 244.673 581.687 237.957 581.687 229.673V103.273C581.687 94.9885 588.403 88.2728 596.687 88.2728H676.493C684.777 88.2728 691.493 94.9885 691.493 103.273V107.485C691.493 115.77 684.777 122.485 676.493 122.485H636.491C629.068 122.485 623.05 128.503 623.05 135.926V135.926C623.05 143.349 629.068 149.367 636.491 149.367H670.839C679.123 149.367 685.839 156.082 685.839 164.367V168.579C685.839 176.863 679.123 183.579 670.839 183.579H636.491C629.068 183.579 623.05 189.597 623.05 197.02V197.02C623.05 204.443 629.068 210.46 636.491 210.46H676.195C684.479 210.46 691.195 217.176 691.195 225.46V229.673C691.195 237.957 684.479 244.673 676.195 244.673H596.687Z" fill="#171382"/>
</g>
<g filter="url(#filter24_i_708_142)">
<path d="M598.746 238C590.462 238 583.746 231.284 583.746 223V113C583.746 104.716 590.462 98 598.746 98H667.137C675.421 98 682.136 104.716 682.136 113V113.625C682.136 121.909 675.421 128.625 667.136 128.625H632.84C626.196 128.625 620.809 134.012 620.809 140.656V140.656C620.809 147.301 626.196 152.687 632.84 152.687H662.07C670.355 152.687 677.07 159.403 677.07 167.687V168.312C677.07 176.597 670.355 183.312 662.07 183.312H632.84C626.196 183.312 620.809 188.699 620.809 195.344V195.344C620.809 201.988 626.196 207.375 632.84 207.375H666.87C675.154 207.375 681.87 214.091 681.87 222.375V223C681.87 231.284 675.154 238 666.87 238H598.746Z" fill="#0E0B60"/>
</g>
</g>
<mask id="mask3_708_142" style="mask-type:alpha" maskUnits="userSpaceOnUse" x="807" y="4" width="369" height="328">
<path d="M807.713 19C807.713 10.7157 814.429 4 822.713 4H905.281C911.416 4 916.932 7.73572 919.209 13.4322L988.845 187.635C989.264 188.682 990.279 189.369 991.407 189.369V189.369C992.535 189.369 993.55 188.682 993.968 187.635L1063.6 13.4322C1065.88 7.73571 1071.4 4 1077.53 4H1160.1C1168.38 4 1175.1 10.7157 1175.1 19V316.273C1175.1 324.557 1168.38 331.273 1160.1 331.273H1105.41C1097.13 331.273 1090.41 324.557 1090.41 316.273V143.542C1090.41 142.728 1089.75 142.068 1088.94 142.068V142.068C1088.33 142.068 1087.78 142.446 1087.56 143.018L1020.61 319.048C1018.4 324.869 1012.82 328.716 1006.59 328.716H976.245C970.006 328.716 964.418 324.853 962.213 319.016L895.25 141.742C895.033 141.169 894.485 140.79 893.872 140.79V140.79C893.059 140.79 892.399 141.449 892.399 142.263V316.273C892.399 324.557 885.683 331.273 877.399 331.273H822.713C814.429 331.273 807.713 324.557 807.713 316.273V19Z" fill="black"/>
</mask>
<g mask="url(#mask3_708_142)">
<g filter="url(#filter25_i_708_142)">
<path d="M807.713 19C807.713 10.7157 814.429 4 822.713 4H905.281C911.416 4 916.932 7.73572 919.209 13.4322L988.845 187.635C989.264 188.682 990.279 189.369 991.407 189.369V189.369C992.535 189.369 993.55 188.682 993.968 187.635L1063.6 13.4322C1065.88 7.73571 1071.4 4 1077.53 4H1160.1C1168.38 4 1175.1 10.7157 1175.1 19V316.273C1175.1 324.557 1168.38 331.273 1160.1 331.273H1105.41C1097.13 331.273 1090.41 324.557 1090.41 316.273V143.542C1090.41 142.728 1089.75 142.068 1088.94 142.068V142.068C1088.33 142.068 1087.78 142.446 1087.56 143.018L1020.61 319.048C1018.4 324.869 1012.82 328.716 1006.59 328.716H976.245C970.006 328.716 964.418 324.853 962.213 319.016L895.25 141.742C895.033 141.169 894.485 140.79 893.872 140.79V140.79C893.059 140.79 892.399 141.449 892.399 142.263V316.273C892.399 324.557 885.683 331.273 877.399 331.273H822.713C814.429 331.273 807.713 324.557 807.713 316.273V19Z" fill="#B8B1F7"/>
</g>
<g filter="url(#filter26_i_708_142)">
<path d="M826.131 52C826.131 43.7157 832.847 37 841.131 37H912.845C918.98 37 924.496 40.7357 926.774 46.4322L989.014 202.133C989.391 203.076 990.303 203.693 991.317 203.693V203.693C992.332 203.693 993.244 203.076 993.621 202.133L1055.86 46.4322C1058.14 40.7357 1063.65 37 1069.79 37H1141.5C1149.79 37 1156.5 43.7157 1156.5 52V316.3C1156.5 324.584 1149.79 331.3 1141.5 331.3H1095.35C1087.07 331.3 1080.35 324.584 1080.35 316.3V162.483C1080.35 161.751 1079.76 161.158 1079.02 161.158V161.158C1078.47 161.158 1077.98 161.498 1077.79 162.012L1017.95 319.333C1015.74 325.153 1010.16 329.001 1003.93 329.001H978.728C972.488 329.001 966.9 325.138 964.696 319.301L904.848 160.865C904.653 160.349 904.16 160.008 903.609 160.008V160.008C902.878 160.008 902.285 160.601 902.285 161.333V316.3C902.285 324.584 895.569 331.3 887.285 331.3H841.131C832.847 331.3 826.131 324.584 826.131 316.3V52Z" fill="#9185E3"/>
</g>
<g filter="url(#filter27_i_708_142)">
<path d="M842.692 81C842.692 72.7157 849.408 66 857.692 66H919.696C925.831 66 931.347 69.7357 933.624 75.4322L989.248 214.581C989.587 215.429 990.408 215.984 991.32 215.984V215.984C992.233 215.984 993.054 215.429 993.393 214.581L1049.02 75.4322C1051.29 69.7357 1056.81 66 1062.94 66H1124.95C1133.23 66 1139.95 72.7157 1139.95 81V315.8C1139.95 324.084 1133.23 330.8 1124.95 330.8H1086.43C1078.14 330.8 1071.43 324.084 1071.43 315.8V178.905C1071.43 178.247 1070.89 177.713 1070.24 177.713V177.713C1069.74 177.713 1069.3 178.018 1069.12 178.481L1015.65 319.063C1013.44 324.884 1007.86 328.731 1001.63 328.731H981.032C974.792 328.731 969.204 324.869 967 319.032L913.518 177.449C913.343 176.985 912.899 176.678 912.404 176.678V176.678C911.746 176.678 911.212 177.212 911.212 177.87V315.8C911.212 324.084 904.496 330.8 896.212 330.8H857.692C849.408 330.8 842.692 324.084 842.692 315.8V81Z" fill="#5452D4"/>
</g>
<g filter="url(#filter28_i_708_142)">
<path d="M858.279 108C858.279 99.7157 864.994 93 873.279 93H926.461C932.596 93 938.112 96.7357 940.389 102.432L990.002 226.543C990.306 227.305 991.044 227.805 991.865 227.805V227.805C992.685 227.805 993.423 227.305 993.727 226.543L1043.34 102.432C1045.62 96.7357 1051.13 93 1057.27 93H1110.45C1118.73 93 1125.45 99.7157 1125.45 108V316C1125.45 324.284 1118.73 331 1110.45 331H1078.87C1070.58 331 1063.87 324.284 1063.87 316V194.478C1063.87 193.886 1063.39 193.406 1062.79 193.406V193.406C1062.35 193.406 1061.95 193.681 1061.79 194.097L1014.11 319.473C1011.89 325.293 1006.31 329.141 1000.09 329.141H983.667C977.427 329.141 971.839 325.278 969.635 319.441L921.937 193.169C921.779 192.752 921.381 192.477 920.935 192.477V192.477C920.343 192.477 919.864 192.956 919.864 193.548V316C919.864 324.284 913.148 331 904.864 331H873.279C864.994 331 858.279 324.284 858.279 316V108Z" fill="#372DC0"/>
</g>
<g filter="url(#filter29_i_708_142)">
<path d="M870.943 131C870.943 122.716 877.658 116 885.943 116H931.39C937.524 116 943.041 119.736 945.318 125.432L989.66 236.357C989.934 237.044 990.599 237.494 991.338 237.494V237.494C992.078 237.494 992.743 237.044 993.017 236.357L1037.36 125.432C1039.64 119.736 1045.15 116 1051.29 116H1096.73C1105.02 116 1111.73 122.716 1111.73 131V315.5C1111.73 323.784 1105.02 330.5 1096.73 330.5H1071.23C1062.95 330.5 1056.23 323.784 1056.23 315.5V207.458C1056.23 206.925 1055.8 206.492 1055.26 206.492V206.492C1054.86 206.492 1054.5 206.74 1054.36 207.115L1011.75 319.156C1009.53 324.977 1003.96 328.824 997.728 328.824H984.974C978.734 328.824 973.146 324.962 970.942 319.125L928.315 206.278C928.173 205.903 927.814 205.654 927.412 205.654V205.654C926.879 205.654 926.447 206.086 926.447 206.62V315.5C926.447 323.784 919.731 330.5 911.447 330.5H885.943C877.658 330.5 870.943 323.784 870.943 315.5V131Z" fill="#2717BB"/>
</g>
<g filter="url(#filter30_i_708_142)">
<path d="M894.323 172C894.323 163.716 901.038 157 909.323 157H941.34C947.475 157 952.991 160.736 955.268 166.432L990.458 254.464C990.681 255.02 991.219 255.385 991.818 255.385V255.385C992.417 255.385 992.955 255.02 993.177 254.464L1028.37 166.432C1030.64 160.736 1036.16 157 1042.3 157H1074.31C1082.6 157 1089.31 163.716 1089.31 172V315.7C1089.31 323.984 1082.6 330.7 1074.31 330.7H1059.37C1051.08 330.7 1044.37 323.984 1044.37 315.7V231.062C1044.37 230.63 1044.02 230.28 1043.58 230.28V230.28C1043.26 230.28 1042.97 230.48 1042.85 230.784L1009.05 319.675C1006.83 325.496 1001.25 329.343 995.025 329.343H988.636C982.397 329.343 976.809 325.48 974.604 319.643L940.783 230.107C940.668 229.802 940.376 229.601 940.051 229.601V229.601C939.62 229.601 939.27 229.951 939.27 230.383V315.7C939.27 323.984 932.554 330.7 924.27 330.7H909.323C901.038 330.7 894.323 323.984 894.323 315.7V172Z" fill="#16119E"/>
</g>
<g filter="url(#filter31_i_708_142)">
<path d="M904.064 190C904.064 181.716 910.78 175 919.064 175H945.387C951.522 175 957.038 178.736 959.315 184.432L990.625 262.757C990.825 263.258 991.31 263.586 991.849 263.586V263.586C992.388 263.586 992.873 263.258 993.073 262.757L1024.38 184.432C1026.66 178.736 1032.18 175 1038.31 175H1064.63C1072.92 175 1079.63 181.716 1079.63 190V316.4C1079.63 324.684 1072.92 331.4 1064.63 331.4H1040.32C1039.55 331.4 1038.78 331.459 1038.02 331.577L1031.86 332.532C1029.87 332.841 1027.84 332.746 1025.89 332.252L1022.52 331.4L1005.06 328.679C1004.3 328.56 1003.53 328.5 1002.75 328.5H991.252H979.562H968.937H957.487C956.198 328.5 954.914 328.666 953.667 328.995L946.413 330.905C945.166 331.234 943.882 331.4 942.592 331.4H919.064C910.78 331.4 904.064 324.684 904.064 316.4V190Z" fill="#171382"/>
</g>
<g filter="url(#filter32_i_708_142)">
<path d="M913.073 206C913.073 197.716 919.788 191 928.073 191H948.625C954.756 191 960.27 194.731 962.55 200.423L989.918 268.758C990.096 269.203 990.527 269.494 991.006 269.494V269.494C991.484 269.494 991.915 269.203 992.093 268.758L1019.46 200.423C1021.74 194.731 1027.26 191 1033.39 191H1053.94C1062.22 191 1068.94 197.716 1068.94 206V314.582C1068.94 322.867 1062.22 329.582 1053.94 329.582H1034.16C1033.4 329.582 1032.63 329.641 1031.87 329.759L1026.86 330.534C1024.88 330.842 1022.85 330.747 1020.9 330.255L1018.23 329.582L1002.86 327.191C1002.1 327.072 1001.33 327.013 1000.56 327.013H990.475H980.097H970.665H960.714C959.427 327.013 958.145 327.178 956.901 327.506L950.876 329.089C949.631 329.417 948.349 329.582 947.062 329.582H928.073C919.788 329.582 913.073 322.867 913.073 314.582V206Z" fill="#0E0B60"/>
</g>
</g>
</g>
<defs>
<filter id="filter0_d_708_142" x="0" y="0" width="1179.1" height="335.273" filterUnits="userSpaceOnUse" color-interpolation-filters="sRGB">
<feFlood flood-opacity="0" result="BackgroundImageFix"/>
<feColorMatrix in="SourceAlpha" type="matrix" values="0 0 0 0 0 0 0 0 0 0 0 0 0 0 0 0 0 0 127 0" result="hardAlpha"/>
<feOffset/>
<feGaussianBlur stdDeviation="2"/>
<feComposite in2="hardAlpha" operator="out"/>
<feColorMatrix type="matrix" values="0 0 0 0 0 0 0 0 0 0 0 0 0 0 0 0 0 0 0.25 0"/>
<feBlend mode="normal" in2="BackgroundImageFix" result="effect1_dropShadow_708_142"/>
<feBlend mode="normal" in="SourceGraphic" in2="effect1_dropShadow_708_142" result="shape"/>
</filter>
<filter id="filter1_i_708_142" x="4" y="4" width="367.387" height="329.773" filterUnits="userSpaceOnUse" color-interpolation-filters="sRGB">
<feFlood flood-opacity="0" result="BackgroundImageFix"/>
<feBlend mode="normal" in="SourceGraphic" in2="BackgroundImageFix" result="shape"/>
<feColorMatrix in="SourceAlpha" type="matrix" values="0 0 0 0 0 0 0 0 0 0 0 0 0 0 0 0 0 0 127 0" result="hardAlpha"/>
<feOffset dy="2.5"/>
<feGaussianBlur stdDeviation="3.5"/>
<feComposite in2="hardAlpha" operator="arithmetic" k2="-1" k3="1"/>
<feColorMatrix type="matrix" values="0 0 0 0 0.0745098 0 0 0 0 0.121569 0 0 0 0 0.176471 0 0 0 0.85 0"/>
<feBlend mode="normal" in2="shape" result="effect1_innerShadow_708_142"/>
</filter>
<filter id="filter2_i_708_142" x="22.4178" y="37" width="330.373" height="296.8" filterUnits="userSpaceOnUse" color-interpolation-filters="sRGB">
<feFlood flood-opacity="0" result="BackgroundImageFix"/>
<feBlend mode="normal" in="SourceGraphic" in2="BackgroundImageFix" result="shape"/>
<feColorMatrix in="SourceAlpha" type="matrix" values="0 0 0 0 0 0 0 0 0 0 0 0 0 0 0 0 0 0 127 0" result="hardAlpha"/>
<feOffset dy="2.5"/>
<feGaussianBlur stdDeviation="3.5"/>
<feComposite in2="hardAlpha" operator="arithmetic" k2="-1" k3="1"/>
<feColorMatrix type="matrix" values="0 0 0 0 0.0745098 0 0 0 0 0.121569 0 0 0 0 0.176471 0 0 0 0.85 0"/>
<feBlend mode="normal" in2="shape" result="effect1_innerShadow_708_142"/>
</filter>
<filter id="filter3_i_708_142" x="38.9786" y="66" width="297.257" height="267.3" filterUnits="userSpaceOnUse" color-interpolation-filters="sRGB">
<feFlood flood-opacity="0" result="BackgroundImageFix"/>
<feBlend mode="normal" in="SourceGraphic" in2="BackgroundImageFix" result="shape"/>
<feColorMatrix in="SourceAlpha" type="matrix" values="0 0 0 0 0 0 0 0 0 0 0 0 0 0 0 0 0 0 127 0" result="hardAlpha"/>
<feOffset dy="2.5"/>
<feGaussianBlur stdDeviation="3.5"/>
<feComposite in2="hardAlpha" operator="arithmetic" k2="-1" k3="1"/>
<feColorMatrix type="matrix" values="0 0 0 0 0.0745098 0 0 0 0 0.121569 0 0 0 0 0.176471 0 0 0 0.85 0"/>
<feBlend mode="normal" in2="shape" result="effect1_innerShadow_708_142"/>
</filter>
<filter id="filter4_i_708_142" x="54.5652" y="93" width="267.172" height="240.5" filterUnits="userSpaceOnUse" color-interpolation-filters="sRGB">
<feFlood flood-opacity="0" result="BackgroundImageFix"/>
<feBlend mode="normal" in="SourceGraphic" in2="BackgroundImageFix" result="shape"/>
<feColorMatrix in="SourceAlpha" type="matrix" values="0 0 0 0 0 0 0 0 0 0 0 0 0 0 0 0 0 0 127 0" result="hardAlpha"/>
<feOffset dy="2.5"/>
<feGaussianBlur stdDeviation="3.5"/>
<feComposite in2="hardAlpha" operator="arithmetic" k2="-1" k3="1"/>
<feColorMatrix type="matrix" values="0 0 0 0 0.0745098 0 0 0 0 0.121569 0 0 0 0 0.176471 0 0 0 0.85 0"/>
<feBlend mode="normal" in2="shape" result="effect1_innerShadow_708_142"/>
</filter>
<filter id="filter5_i_708_142" x="67.2293" y="116" width="240.792" height="217" filterUnits="userSpaceOnUse" color-interpolation-filters="sRGB">
<feFlood flood-opacity="0" result="BackgroundImageFix"/>
<feBlend mode="normal" in="SourceGraphic" in2="BackgroundImageFix" result="shape"/>
<feColorMatrix in="SourceAlpha" type="matrix" values="0 0 0 0 0 0 0 0 0 0 0 0 0 0 0 0 0 0 127 0" result="hardAlpha"/>
<feOffset dy="2.5"/>
<feGaussianBlur stdDeviation="3.5"/>
<feComposite in2="hardAlpha" operator="arithmetic" k2="-1" k3="1"/>
<feColorMatrix type="matrix" values="0 0 0 0 0.0745098 0 0 0 0 0.121569 0 0 0 0 0.176471 0 0 0 0.85 0"/>
<feBlend mode="normal" in2="shape" result="effect1_innerShadow_708_142"/>
</filter>
<filter id="filter6_i_708_142" x="90.6093" y="157" width="194.991" height="176.2" filterUnits="userSpaceOnUse" color-interpolation-filters="sRGB">
<feFlood flood-opacity="0" result="BackgroundImageFix"/>
<feBlend mode="normal" in="SourceGraphic" in2="BackgroundImageFix" result="shape"/>
<feColorMatrix in="SourceAlpha" type="matrix" values="0 0 0 0 0 0 0 0 0 0 0 0 0 0 0 0 0 0 127 0" result="hardAlpha"/>
<feOffset dy="2.5"/>
<feGaussianBlur stdDeviation="3.5"/>
<feComposite in2="hardAlpha" operator="arithmetic" k2="-1" k3="1"/>
<feColorMatrix type="matrix" values="0 0 0 0 0.0745098 0 0 0 0 0.121569 0 0 0 0 0.176471 0 0 0 0.85 0"/>
<feBlend mode="normal" in2="shape" result="effect1_innerShadow_708_142"/>
</filter>
<filter id="filter7_i_708_142" x="100.351" y="175" width="175.57" height="160.21" filterUnits="userSpaceOnUse" color-interpolation-filters="sRGB">
<feFlood flood-opacity="0" result="BackgroundImageFix"/>
<feBlend mode="normal" in="SourceGraphic" in2="BackgroundImageFix" result="shape"/>
<feColorMatrix in="SourceAlpha" type="matrix" values="0 0 0 0 0 0 0 0 0 0 0 0 0 0 0 0 0 0 127 0" result="hardAlpha"/>
<feOffset dy="2.5"/>
<feGaussianBlur stdDeviation="3.5"/>
<feComposite in2="hardAlpha" operator="arithmetic" k2="-1" k3="1"/>
<feColorMatrix type="matrix" values="0 0 0 0 0.0745098 0 0 0 0 0.121569 0 0 0 0 0.176471 0 0 0 0.85 0"/>
<feBlend mode="normal" in2="shape" result="effect1_innerShadow_708_142"/>
</filter>
<filter id="filter8_i_708_142" x="111.158" y="192" width="153.918" height="141.208" filterUnits="userSpaceOnUse" color-interpolation-filters="sRGB">
<feFlood flood-opacity="0" result="BackgroundImageFix"/>
<feBlend mode="normal" in="SourceGraphic" in2="BackgroundImageFix" result="shape"/>
<feColorMatrix in="SourceAlpha" type="matrix" values="0 0 0 0 0 0 0 0 0 0 0 0 0 0 0 0 0 0 127 0" result="hardAlpha"/>
<feOffset dy="2.5"/>
<feGaussianBlur stdDeviation="3.5"/>
<feComposite in2="hardAlpha" operator="arithmetic" k2="-1" k3="1"/>
<feColorMatrix type="matrix" values="0 0 0 0 0.0745098 0 0 0 0 0.121569 0 0 0 0 0.176471 0 0 0 0.85 0"/>
<feBlend mode="normal" in2="shape" result="effect1_innerShadow_708_142"/>
</filter>
<filter id="filter9_i_708_142" x="411.387" y="4" width="86.5538" height="329.773" filterUnits="userSpaceOnUse" color-interpolation-filters="sRGB">
<feFlood flood-opacity="0" result="BackgroundImageFix"/>
<feBlend mode="normal" in="SourceGraphic" in2="BackgroundImageFix" result="shape"/>
<feColorMatrix in="SourceAlpha" type="matrix" values="0 0 0 0 0 0 0 0 0 0 0 0 0 0 0 0 0 0 127 0" result="hardAlpha"/>
<feOffset dy="2.5"/>
<feGaussianBlur stdDeviation="3.5"/>
<feComposite in2="hardAlpha" operator="arithmetic" k2="-1" k3="1"/>
<feColorMatrix type="matrix" values="0 0 0 0 0.0745098 0 0 0 0 0.121569 0 0 0 0 0.176471 0 0 0 0.85 0"/>
<feBlend mode="normal" in2="shape" result="effect1_innerShadow_708_142"/>
</filter>
<filter id="filter10_i_708_142" x="416.167" y="20.2728" width="77.8336" height="296.8" filterUnits="userSpaceOnUse" color-interpolation-filters="sRGB">
<feFlood flood-opacity="0" result="BackgroundImageFix"/>
<feBlend mode="normal" in="SourceGraphic" in2="BackgroundImageFix" result="shape"/>
<feColorMatrix in="SourceAlpha" type="matrix" values="0 0 0 0 0 0 0 0 0 0 0 0 0 0 0 0 0 0 127 0" result="hardAlpha"/>
<feOffset dy="2.5"/>
<feGaussianBlur stdDeviation="3.5"/>
<feComposite in2="hardAlpha" operator="arithmetic" k2="-1" k3="1"/>
<feColorMatrix type="matrix" values="0 0 0 0 0.0745098 0 0 0 0 0.121569 0 0 0 0 0.176471 0 0 0 0.85 0"/>
<feBlend mode="normal" in2="shape" result="effect1_innerShadow_708_142"/>
</filter>
<filter id="filter11_i_708_142" x="420.063" y="35.2728" width="70.0317" height="267.3" filterUnits="userSpaceOnUse" color-interpolation-filters="sRGB">
<feFlood flood-opacity="0" result="BackgroundImageFix"/>
<feBlend mode="normal" in="SourceGraphic" in2="BackgroundImageFix" result="shape"/>
<feColorMatrix in="SourceAlpha" type="matrix" values="0 0 0 0 0 0 0 0 0 0 0 0 0 0 0 0 0 0 127 0" result="hardAlpha"/>
<feOffset dy="2.5"/>
<feGaussianBlur stdDeviation="3.5"/>
<feComposite in2="hardAlpha" operator="arithmetic" k2="-1" k3="1"/>
<feColorMatrix type="matrix" values="0 0 0 0 0.0745098 0 0 0 0 0.121569 0 0 0 0 0.176471 0 0 0 0.85 0"/>
<feBlend mode="normal" in2="shape" result="effect1_innerShadow_708_142"/>
</filter>
<filter id="filter12_i_708_142" x="423.96" y="48.2728" width="62.944" height="240.5" filterUnits="userSpaceOnUse" color-interpolation-filters="sRGB">
<feFlood flood-opacity="0" result="BackgroundImageFix"/>
<feBlend mode="normal" in="SourceGraphic" in2="BackgroundImageFix" result="shape"/>
<feColorMatrix in="SourceAlpha" type="matrix" values="0 0 0 0 0 0 0 0 0 0 0 0 0 0 0 0 0 0 127 0" result="hardAlpha"/>
<feOffset dy="2.5"/>
<feGaussianBlur stdDeviation="3.5"/>
<feComposite in2="hardAlpha" operator="arithmetic" k2="-1" k3="1"/>
<feColorMatrix type="matrix" values="0 0 0 0 0.0745098 0 0 0 0 0.121569 0 0 0 0 0.176471 0 0 0 0.85 0"/>
<feBlend mode="normal" in2="shape" result="effect1_innerShadow_708_142"/>
</filter>
<filter id="filter13_i_708_142" x="426.882" y="60.2728" width="56.7289" height="217" filterUnits="userSpaceOnUse" color-interpolation-filters="sRGB">
<feFlood flood-opacity="0" result="BackgroundImageFix"/>
<feBlend mode="normal" in="SourceGraphic" in2="BackgroundImageFix" result="shape"/>
<feColorMatrix in="SourceAlpha" type="matrix" values="0 0 0 0 0 0 0 0 0 0 0 0 0 0 0 0 0 0 127 0" result="hardAlpha"/>
<feOffset dy="2.5"/>
<feGaussianBlur stdDeviation="3.5"/>
<feComposite in2="hardAlpha" operator="arithmetic" k2="-1" k3="1"/>
<feColorMatrix type="matrix" values="0 0 0 0 0.0745098 0 0 0 0 0.121569 0 0 0 0 0.176471 0 0 0 0.85 0"/>
<feBlend mode="normal" in2="shape" result="effect1_innerShadow_708_142"/>
</filter>
<filter id="filter14_i_708_142" x="431.753" y="80.2728" width="45.9385" height="176.2" filterUnits="userSpaceOnUse" color-interpolation-filters="sRGB">
<feFlood flood-opacity="0" result="BackgroundImageFix"/>
<feBlend mode="normal" in="SourceGraphic" in2="BackgroundImageFix" result="shape"/>
<feColorMatrix in="SourceAlpha" type="matrix" values="0 0 0 0 0 0 0 0 0 0 0 0 0 0 0 0 0 0 127 0" result="hardAlpha"/>
<feOffset dy="2.5"/>
<feGaussianBlur stdDeviation="3.5"/>
<feComposite in2="hardAlpha" operator="arithmetic" k2="-1" k3="1"/>
<feColorMatrix type="matrix" values="0 0 0 0 0.0745098 0 0 0 0 0.121569 0 0 0 0 0.176471 0 0 0 0.85 0"/>
<feBlend mode="normal" in2="shape" result="effect1_innerShadow_708_142"/>
</filter>
<filter id="filter15_i_708_142" x="434.676" y="89.2728" width="41.3632" height="158.9" filterUnits="userSpaceOnUse" color-interpolation-filters="sRGB">
<feFlood flood-opacity="0" result="BackgroundImageFix"/>
<feBlend mode="normal" in="SourceGraphic" in2="BackgroundImageFix" result="shape"/>
<feColorMatrix in="SourceAlpha" type="matrix" values="0 0 0 0 0 0 0 0 0 0 0 0 0 0 0 0 0 0 127 0" result="hardAlpha"/>
<feOffset dy="2.5"/>
<feGaussianBlur stdDeviation="3.5"/>
<feComposite in2="hardAlpha" operator="arithmetic" k2="-1" k3="1"/>
<feColorMatrix type="matrix" values="0 0 0 0 0.0745098 0 0 0 0 0.121569 0 0 0 0 0.176471 0 0 0 0.85 0"/>
<feBlend mode="normal" in2="shape" result="effect1_innerShadow_708_142"/>
</filter>
<filter id="filter16_i_708_142" x="438.536" y="102" width="34.0957" height="133.5" filterUnits="userSpaceOnUse" color-interpolation-filters="sRGB">
<feFlood flood-opacity="0" result="BackgroundImageFix"/>
<feBlend mode="normal" in="SourceGraphic" in2="BackgroundImageFix" result="shape"/>
<feColorMatrix in="SourceAlpha" type="matrix" values="0 0 0 0 0 0 0 0 0 0 0 0 0 0 0 0 0 0 127 0" result="hardAlpha"/>
<feOffset dy="2.5"/>
<feGaussianBlur stdDeviation="3.5"/>
<feComposite in2="hardAlpha" operator="arithmetic" k2="-1" k3="1"/>
<feColorMatrix type="matrix" values="0 0 0 0 0.0745098 0 0 0 0 0.121569 0 0 0 0 0.176471 0 0 0 0.85 0"/>
<feBlend mode="normal" in2="shape" result="effect1_innerShadow_708_142"/>
</filter>
<filter id="filter17_i_708_142" x="537.941" y="3" width="229.773" height="329.773" filterUnits="userSpaceOnUse" color-interpolation-filters="sRGB">
<feFlood flood-opacity="0" result="BackgroundImageFix"/>
<feBlend mode="normal" in="SourceGraphic" in2="BackgroundImageFix" result="shape"/>
<feColorMatrix in="SourceAlpha" type="matrix" values="0 0 0 0 0 0 0 0 0 0 0 0 0 0 0 0 0 0 127 0" result="hardAlpha"/>
<feOffset dy="2.5"/>
<feGaussianBlur stdDeviation="3.5"/>
<feComposite in2="hardAlpha" operator="arithmetic" k2="-1" k3="1"/>
<feColorMatrix type="matrix" values="0 0 0 0 0.0745098 0 0 0 0 0.121569 0 0 0 0 0.176471 0 0 0 0.85 0"/>
<feBlend mode="normal" in2="shape" result="effect1_innerShadow_708_142"/>
</filter>
<filter id="filter18_i_708_142" x="549.54" y="19.2728" width="206.623" height="296.8" filterUnits="userSpaceOnUse" color-interpolation-filters="sRGB">
<feFlood flood-opacity="0" result="BackgroundImageFix"/>
<feBlend mode="normal" in="SourceGraphic" in2="BackgroundImageFix" result="shape"/>
<feColorMatrix in="SourceAlpha" type="matrix" values="0 0 0 0 0 0 0 0 0 0 0 0 0 0 0 0 0 0 127 0" result="hardAlpha"/>
<feOffset dy="2.5"/>
<feGaussianBlur stdDeviation="3.5"/>
<feComposite in2="hardAlpha" operator="arithmetic" k2="-1" k3="1"/>
<feColorMatrix type="matrix" values="0 0 0 0 0.0745098 0 0 0 0 0.121569 0 0 0 0 0.176471 0 0 0 0.85 0"/>
<feBlend mode="normal" in2="shape" result="effect1_innerShadow_708_142"/>
</filter>
<filter id="filter19_i_708_142" x="556.359" y="34.2728" width="185.911" height="267.3" filterUnits="userSpaceOnUse" color-interpolation-filters="sRGB">
<feFlood flood-opacity="0" result="BackgroundImageFix"/>
<feBlend mode="normal" in="SourceGraphic" in2="BackgroundImageFix" result="shape"/>
<feColorMatrix in="SourceAlpha" type="matrix" values="0 0 0 0 0 0 0 0 0 0 0 0 0 0 0 0 0 0 127 0" result="hardAlpha"/>
<feOffset dy="2.5"/>
<feGaussianBlur stdDeviation="3.5"/>
<feComposite in2="hardAlpha" operator="arithmetic" k2="-1" k3="1"/>
<feColorMatrix type="matrix" values="0 0 0 0 0.0745098 0 0 0 0 0.121569 0 0 0 0 0.176471 0 0 0 0.85 0"/>
<feBlend mode="normal" in2="shape" result="effect1_innerShadow_708_142"/>
</filter>
<filter id="filter20_i_708_142" x="561.229" y="47.2728" width="167.096" height="240.5" filterUnits="userSpaceOnUse" color-interpolation-filters="sRGB">
<feFlood flood-opacity="0" result="BackgroundImageFix"/>
<feBlend mode="normal" in="SourceGraphic" in2="BackgroundImageFix" result="shape"/>
<feColorMatrix in="SourceAlpha" type="matrix" values="0 0 0 0 0 0 0 0 0 0 0 0 0 0 0 0 0 0 127 0" result="hardAlpha"/>
<feOffset dy="2.5"/>
<feGaussianBlur stdDeviation="3.5"/>
<feComposite in2="hardAlpha" operator="arithmetic" k2="-1" k3="1"/>
<feColorMatrix type="matrix" values="0 0 0 0 0.0745098 0 0 0 0 0.121569 0 0 0 0 0.176471 0 0 0 0.85 0"/>
<feBlend mode="normal" in2="shape" result="effect1_innerShadow_708_142"/>
</filter>
<filter id="filter21_i_708_142" x="567.074" y="59.2728" width="150.597" height="217" filterUnits="userSpaceOnUse" color-interpolation-filters="sRGB">
<feFlood flood-opacity="0" result="BackgroundImageFix"/>
<feBlend mode="normal" in="SourceGraphic" in2="BackgroundImageFix" result="shape"/>
<feColorMatrix in="SourceAlpha" type="matrix" values="0 0 0 0 0 0 0 0 0 0 0 0 0 0 0 0 0 0 127 0" result="hardAlpha"/>
<feOffset dy="2.5"/>
<feGaussianBlur stdDeviation="3.5"/>
<feComposite in2="hardAlpha" operator="arithmetic" k2="-1" k3="1"/>
<feColorMatrix type="matrix" values="0 0 0 0 0.0745098 0 0 0 0 0.121569 0 0 0 0 0.176471 0 0 0 0.85 0"/>
<feBlend mode="normal" in2="shape" result="effect1_innerShadow_708_142"/>
</filter>
<filter id="filter22_i_708_142" x="576.816" y="79.2728" width="121.952" height="176.2" filterUnits="userSpaceOnUse" color-interpolation-filters="sRGB">
<feFlood flood-opacity="0" result="BackgroundImageFix"/>
<feBlend mode="normal" in="SourceGraphic" in2="BackgroundImageFix" result="shape"/>
<feColorMatrix in="SourceAlpha" type="matrix" values="0 0 0 0 0 0 0 0 0 0 0 0 0 0 0 0 0 0 127 0" result="hardAlpha"/>
<feOffset dy="2.5"/>
<feGaussianBlur stdDeviation="3.5"/>
<feComposite in2="hardAlpha" operator="arithmetic" k2="-1" k3="1"/>
<feColorMatrix type="matrix" values="0 0 0 0 0.0745098 0 0 0 0 0.121569 0 0 0 0 0.176471 0 0 0 0.85 0"/>
<feBlend mode="normal" in2="shape" result="effect1_innerShadow_708_142"/>
</filter>
<filter id="filter23_i_708_142" x="581.687" y="88.2728" width="109.806" height="158.9" filterUnits="userSpaceOnUse" color-interpolation-filters="sRGB">
<feFlood flood-opacity="0" result="BackgroundImageFix"/>
<feBlend mode="normal" in="SourceGraphic" in2="BackgroundImageFix" result="shape"/>
<feColorMatrix in="SourceAlpha" type="matrix" values="0 0 0 0 0 0 0 0 0 0 0 0 0 0 0 0 0 0 127 0" result="hardAlpha"/>
<feOffset dy="2.5"/>
<feGaussianBlur stdDeviation="3.5"/>
<feComposite in2="hardAlpha" operator="arithmetic" k2="-1" k3="1"/>
<feColorMatrix type="matrix" values="0 0 0 0 0.0745098 0 0 0 0 0.121569 0 0 0 0 0.176471 0 0 0 0.85 0"/>
<feBlend mode="normal" in2="shape" result="effect1_innerShadow_708_142"/>
</filter>
<filter id="filter24_i_708_142" x="583.746" y="98" width="98.3905" height="142.5" filterUnits="userSpaceOnUse" color-interpolation-filters="sRGB">
<feFlood flood-opacity="0" result="BackgroundImageFix"/>
<feBlend mode="normal" in="SourceGraphic" in2="BackgroundImageFix" result="shape"/>
<feColorMatrix in="SourceAlpha" type="matrix" values="0 0 0 0 0 0 0 0 0 0 0 0 0 0 0 0 0 0 127 0" result="hardAlpha"/>
<feOffset dy="2.5"/>
<feGaussianBlur stdDeviation="3.5"/>
<feComposite in2="hardAlpha" operator="arithmetic" k2="-1" k3="1"/>
<feColorMatrix type="matrix" values="0 0 0 0 0.0745098 0 0 0 0 0.121569 0 0 0 0 0.176471 0 0 0 0.85 0"/>
<feBlend mode="normal" in2="shape" result="effect1_innerShadow_708_142"/>
</filter>
<filter id="filter25_i_708_142" x="807.713" y="4" width="367.387" height="329.773" filterUnits="userSpaceOnUse" color-interpolation-filters="sRGB">
<feFlood flood-opacity="0" result="BackgroundImageFix"/>
<feBlend mode="normal" in="SourceGraphic" in2="BackgroundImageFix" result="shape"/>
<feColorMatrix in="SourceAlpha" type="matrix" values="0 0 0 0 0 0 0 0 0 0 0 0 0 0 0 0 0 0 127 0" result="hardAlpha"/>
<feOffset dy="2.5"/>
<feGaussianBlur stdDeviation="3.5"/>
<feComposite in2="hardAlpha" operator="arithmetic" k2="-1" k3="1"/>
<feColorMatrix type="matrix" values="0 0 0 0 0.0745098 0 0 0 0 0.121569 0 0 0 0 0.176471 0 0 0 0.85 0"/>
<feBlend mode="normal" in2="shape" result="effect1_innerShadow_708_142"/>
</filter>
<filter id="filter26_i_708_142" x="826.131" y="37" width="330.373" height="296.8" filterUnits="userSpaceOnUse" color-interpolation-filters="sRGB">
<feFlood flood-opacity="0" result="BackgroundImageFix"/>
<feBlend mode="normal" in="SourceGraphic" in2="BackgroundImageFix" result="shape"/>
<feColorMatrix in="SourceAlpha" type="matrix" values="0 0 0 0 0 0 0 0 0 0 0 0 0 0 0 0 0 0 127 0" result="hardAlpha"/>
<feOffset dy="2.5"/>
<feGaussianBlur stdDeviation="3.5"/>
<feComposite in2="hardAlpha" operator="arithmetic" k2="-1" k3="1"/>
<feColorMatrix type="matrix" values="0 0 0 0 0.0745098 0 0 0 0 0.121569 0 0 0 0 0.176471 0 0 0 0.85 0"/>
<feBlend mode="normal" in2="shape" result="effect1_innerShadow_708_142"/>
</filter>
<filter id="filter27_i_708_142" x="842.692" y="66" width="297.257" height="267.3" filterUnits="userSpaceOnUse" color-interpolation-filters="sRGB">
<feFlood flood-opacity="0" result="BackgroundImageFix"/>
<feBlend mode="normal" in="SourceGraphic" in2="BackgroundImageFix" result="shape"/>
<feColorMatrix in="SourceAlpha" type="matrix" values="0 0 0 0 0 0 0 0 0 0 0 0 0 0 0 0 0 0 127 0" result="hardAlpha"/>
<feOffset dy="2.5"/>
<feGaussianBlur stdDeviation="3.5"/>
<feComposite in2="hardAlpha" operator="arithmetic" k2="-1" k3="1"/>
<feColorMatrix type="matrix" values="0 0 0 0 0.0745098 0 0 0 0 0.121569 0 0 0 0 0.176471 0 0 0 0.85 0"/>
<feBlend mode="normal" in2="shape" result="effect1_innerShadow_708_142"/>
</filter>
<filter id="filter28_i_708_142" x="858.279" y="93" width="267.172" height="240.5" filterUnits="userSpaceOnUse" color-interpolation-filters="sRGB">
<feFlood flood-opacity="0" result="BackgroundImageFix"/>
<feBlend mode="normal" in="SourceGraphic" in2="BackgroundImageFix" result="shape"/>
<feColorMatrix in="SourceAlpha" type="matrix" values="0 0 0 0 0 0 0 0 0 0 0 0 0 0 0 0 0 0 127 0" result="hardAlpha"/>
<feOffset dy="2.5"/>
<feGaussianBlur stdDeviation="3.5"/>
<feComposite in2="hardAlpha" operator="arithmetic" k2="-1" k3="1"/>
<feColorMatrix type="matrix" values="0 0 0 0 0.0745098 0 0 0 0 0.121569 0 0 0 0 0.176471 0 0 0 0.85 0"/>
<feBlend mode="normal" in2="shape" result="effect1_innerShadow_708_142"/>
</filter>
<filter id="filter29_i_708_142" x="870.943" y="116" width="240.792" height="217" filterUnits="userSpaceOnUse" color-interpolation-filters="sRGB">
<feFlood flood-opacity="0" result="BackgroundImageFix"/>
<feBlend mode="normal" in="SourceGraphic" in2="BackgroundImageFix" result="shape"/>
<feColorMatrix in="SourceAlpha" type="matrix" values="0 0 0 0 0 0 0 0 0 0 0 0 0 0 0 0 0 0 127 0" result="hardAlpha"/>
<feOffset dy="2.5"/>
<feGaussianBlur stdDeviation="3.5"/>
<feComposite in2="hardAlpha" operator="arithmetic" k2="-1" k3="1"/>
<feColorMatrix type="matrix" values="0 0 0 0 0.0745098 0 0 0 0 0.121569 0 0 0 0 0.176471 0 0 0 0.85 0"/>
<feBlend mode="normal" in2="shape" result="effect1_innerShadow_708_142"/>
</filter>
<filter id="filter30_i_708_142" x="894.323" y="157" width="194.991" height="176.2" filterUnits="userSpaceOnUse" color-interpolation-filters="sRGB">
<feFlood flood-opacity="0" result="BackgroundImageFix"/>
<feBlend mode="normal" in="SourceGraphic" in2="BackgroundImageFix" result="shape"/>
<feColorMatrix in="SourceAlpha" type="matrix" values="0 0 0 0 0 0 0 0 0 0 0 0 0 0 0 0 0 0 127 0" result="hardAlpha"/>
<feOffset dy="2.5"/>
<feGaussianBlur stdDeviation="3.5"/>
<feComposite in2="hardAlpha" operator="arithmetic" k2="-1" k3="1"/>
<feColorMatrix type="matrix" values="0 0 0 0 0.0745098 0 0 0 0 0.121569 0 0 0 0 0.176471 0 0 0 0.85 0"/>
<feBlend mode="normal" in2="shape" result="effect1_innerShadow_708_142"/>
</filter>
<filter id="filter31_i_708_142" x="904.064" y="175" width="175.57" height="160.21" filterUnits="userSpaceOnUse" color-interpolation-filters="sRGB">
<feFlood flood-opacity="0" result="BackgroundImageFix"/>
<feBlend mode="normal" in="SourceGraphic" in2="BackgroundImageFix" result="shape"/>
<feColorMatrix in="SourceAlpha" type="matrix" values="0 0 0 0 0 0 0 0 0 0 0 0 0 0 0 0 0 0 127 0" result="hardAlpha"/>
<feOffset dy="2.5"/>
<feGaussianBlur stdDeviation="3.5"/>
<feComposite in2="hardAlpha" operator="arithmetic" k2="-1" k3="1"/>
<feColorMatrix type="matrix" values="0 0 0 0 0.0745098 0 0 0 0 0.121569 0 0 0 0 0.176471 0 0 0 0.85 0"/>
<feBlend mode="normal" in2="shape" result="effect1_innerShadow_708_142"/>
</filter>
<filter id="filter32_i_708_142" x="913.073" y="191" width="155.866" height="142.211" filterUnits="userSpaceOnUse" color-interpolation-filters="sRGB">
<feFlood flood-opacity="0" result="BackgroundImageFix"/>
<feBlend mode="normal" in="SourceGraphic" in2="BackgroundImageFix" result="shape"/>
<feColorMatrix in="SourceAlpha" type="matrix" values="0 0 0 0 0 0 0 0 0 0 0 0 0 0 0 0 0 0 127 0" result="hardAlpha"/>
<feOffset dy="2.5"/>
<feGaussianBlur stdDeviation="3.5"/>
<feComposite in2="hardAlpha" operator="arithmetic" k2="-1" k3="1"/>
<feColorMatrix type="matrix" values="0 0 0 0 0.0745098 0 0 0 0 0.121569 0 0 0 0 0.176471 0 0 0 0.85 0"/>
<feBlend mode="normal" in2="shape" result="effect1_innerShadow_708_142"/>
</filter>
</defs>
</svg>
