<svg width="261" height="261" viewBox="0 0 261 261" fill="none" xmlns="http://www.w3.org/2000/svg">
<path d="M164 164L251 251L163.355 163.355M163.355 163.355C180.202 146.508 189.667 123.659 189.667 99.8333C189.667 76.008 180.202 53.1586 163.355 36.3116C146.508 19.4646 123.659 10 99.8333 10C88.0362 10 76.3547 12.3236 65.4556 16.8382C54.5565 21.3527 44.6534 27.9698 36.3116 36.3116C27.9698 44.6534 21.3527 54.5565 16.8382 65.4556C12.3236 76.3547 10 88.0362 10 99.8333C10 111.63 12.3236 123.312 16.8382 134.211C21.3527 145.11 27.9698 155.013 36.3116 163.355C44.6534 171.697 54.5565 178.314 65.4556 182.829C76.3547 187.343 88.0362 189.667 99.8333 189.667C123.659 189.667 146.508 180.202 163.355 163.355Z" stroke="#757575" stroke-width="20" stroke-linecap="round" stroke-linejoin="round"/>
</svg>
