<svg width="25" height="25" viewBox="0 0 25 25" fill="none" xmlns="http://www.w3.org/2000/svg">
<path fill-rule="evenodd" clip-rule="evenodd" d="M16.8794 15.5198L22.2864 21.124C22.4765 21.3211 22.5832 21.5884 22.5831 21.8671C22.583 22.1457 22.4761 22.4129 22.2859 22.6099C22.0957 22.8069 21.8379 22.9175 21.569 22.9174C21.3001 22.9173 21.0423 22.8065 20.8523 22.6094L15.4452 17.0052C13.8289 18.3028 11.7963 18.9134 9.76093 18.7129C7.7256 18.5123 5.84043 17.5157 4.48892 15.9257C3.13741 14.3356 2.42109 12.2717 2.48568 10.1537C2.55026 8.03573 3.3909 6.02279 4.83658 4.5244C6.28227 3.02601 8.2244 2.15472 10.2679 2.08778C12.3114 2.02084 14.3027 2.76328 15.8368 4.16406C17.3709 5.56484 18.3325 7.51874 18.526 9.62828C18.7195 11.7378 18.1303 13.8445 16.8784 15.5198M10.5226 16.6667C12.1219 16.6667 13.6557 16.0082 14.7866 14.8361C15.9174 13.664 16.5528 12.0743 16.5528 10.4167C16.5528 8.75908 15.9174 7.16937 14.7866 5.99727C13.6557 4.82517 12.1219 4.16669 10.5226 4.16669C8.92331 4.16669 7.38952 4.82517 6.25865 5.99727C5.12778 7.16937 4.49246 8.75908 4.49246 10.4167C4.49246 12.0743 5.12778 13.664 6.25865 14.8361C7.38952 16.0082 8.92331 16.6667 10.5226 16.6667Z" fill="#464646"/>
</svg>
