<svg width="138" height="73" viewBox="0 0 138 73" fill="none" xmlns="http://www.w3.org/2000/svg">
<path fill-rule="evenodd" clip-rule="evenodd" d="M4.03747 0.999993C4.79214 0.676887 5.60307 0.50562 6.42395 0.495976C7.24482 0.486332 8.05956 0.638499 8.82161 0.943785C9.58367 1.24907 10.2781 1.7015 10.8653 2.27522C11.4525 2.84894 11.9209 3.53272 12.2437 4.28749L6.49997 6.74999L12.25 4.28749L12.2687 4.33749L12.4 4.61874L12.9875 5.83124C13.525 6.90624 14.3562 8.48124 15.4875 10.3875C18.4704 15.3986 21.9685 20.0844 25.925 24.3687C27.1108 25.6445 28.3407 26.8786 29.6125 28.0687C38.875 36.75 51.8187 44.25 69 44.25C75.886 44.2815 82.7154 43.0047 89.125 40.4875C96.7937 37.4687 103.212 32.925 108.475 28C115.513 21.3217 121.298 13.4368 125.556 4.71874L125.725 4.35624L125.756 4.28749C126.425 2.78755 127.657 1.61098 129.186 1.01217C130.715 0.413358 132.418 0.44042 133.928 1.0875C135.437 1.73459 136.631 2.9497 137.251 4.47012C137.872 5.99055 137.869 7.69411 137.244 9.21249L137.231 9.24374L137.206 9.29374L137.137 9.45624L136.887 9.99999C135.499 12.8911 133.953 15.7037 132.256 18.425C129.132 23.4434 125.552 28.1634 121.562 32.525L126.544 37.5062C127.716 38.6782 128.376 40.268 128.376 41.9259C128.377 43.5838 127.719 45.1741 126.547 46.3469C125.375 47.5196 123.785 48.1788 122.127 48.1794C120.469 48.18 118.879 47.5219 117.706 46.35L112.456 41.1C108.762 44.0862 104.792 46.7147 100.6 48.95L105.487 56.4625C105.949 57.1501 106.268 57.9225 106.429 58.7349C106.589 59.5472 106.586 60.3832 106.42 61.1944C106.254 62.0055 105.929 62.7757 105.463 63.4601C104.997 64.1445 104.4 64.7296 103.706 65.1812C103.012 65.6329 102.236 65.9422 101.421 66.0912C100.607 66.2402 99.7708 66.2259 98.962 66.0491C98.1532 65.8724 97.3875 65.5366 96.7095 65.0615C96.0315 64.5863 95.4547 63.9812 95.0125 63.2812L88.85 53.8187C84.6062 55.1187 80.075 56.0375 75.25 56.4687V66.125C75.25 67.7826 74.5915 69.3723 73.4194 70.5444C72.2473 71.7165 70.6576 72.375 69 72.375C67.3424 72.375 65.7527 71.7165 64.5806 70.5444C63.4085 69.3723 62.75 67.7826 62.75 66.125V56.475C57.9062 56.0375 53.375 55.1187 49.1437 53.8187L42.9875 63.2812C42.0631 64.6218 40.6521 65.5487 39.0547 65.8646C37.4573 66.1805 35.7997 65.8605 34.4346 64.9727C33.0696 64.085 32.1049 62.6995 31.7459 61.1112C31.3869 59.523 31.6619 57.8573 32.5125 56.4687L37.4 48.95C33.025 46.6375 29.075 43.95 25.5437 41.0937L20.2937 46.3437C19.115 47.4822 17.5362 48.1122 15.8975 48.098C14.2587 48.0837 12.6912 47.4264 11.5324 46.2676C10.3736 45.1088 9.71625 43.5412 9.70201 41.9025C9.68777 40.2638 10.3177 38.685 11.4562 37.5062L16.4375 32.525C12.0159 27.6886 8.09971 22.4133 4.74997 16.7812C3.41593 14.5314 2.18344 12.2228 1.05622 9.86249L0.849967 9.41249L0.787467 9.28124L0.774968 9.23749L0.768717 9.22499C0.749967 9.22499 0.749968 9.21249 6.49997 6.74999L0.756217 9.21874C0.431957 8.46411 0.259618 7.65297 0.249052 6.8317C0.238487 6.01042 0.389902 5.19511 0.694642 4.43239C0.999382 3.66967 1.45147 2.97449 2.02506 2.38661C2.59864 1.79873 3.28248 1.32341 4.03747 0.999993Z" fill="#4A4A4A"/>
</svg>
