<svg width="138" height="94" viewBox="0 0 138 94" fill="none" xmlns="http://www.w3.org/2000/svg">
<path d="M69 28.25C64.0272 28.25 59.2581 30.2254 55.7417 33.7417C52.2254 37.2581 50.25 42.0272 50.25 47C50.25 51.9728 52.2254 56.7419 55.7417 60.2583C59.2581 63.7746 64.0272 65.75 69 65.75C73.9728 65.75 78.7419 63.7746 82.2583 60.2583C85.7746 56.7419 87.75 51.9728 87.75 47C87.75 42.0272 85.7746 37.2581 82.2583 33.7417C78.7419 30.2254 73.9728 28.25 69 28.25ZM69 78.25C60.712 78.25 52.7634 74.9576 46.9029 69.0971C41.0424 63.2366 37.75 55.288 37.75 47C37.75 38.712 41.0424 30.7634 46.9029 24.9029C52.7634 19.0424 60.712 15.75 69 15.75C77.288 15.75 85.2366 19.0424 91.0971 24.9029C96.9576 30.7634 100.25 38.712 100.25 47C100.25 55.288 96.9576 63.2366 91.0971 69.0971C85.2366 74.9576 77.288 78.25 69 78.25ZM69 0.125C37.75 0.125 11.0625 19.5625 0.25 47C11.0625 74.4375 37.75 93.875 69 93.875C100.25 93.875 126.937 74.4375 137.75 47C126.937 19.5625 100.25 0.125 69 0.125Z" fill="#4A4A4A"/>
</svg>
