<svg width="116" height="122" viewBox="0 0 116 122" fill="none" xmlns="http://www.w3.org/2000/svg">
<path d="M45.375 72.8438H10.7937C-5.11878 72.8438 15.5687 4.75 26.9687 4.75H105.225C108.55 4.75 111.25 7.4 111.25 10.6688V69.325C111.244 70.3939 110.949 71.4413 110.396 72.3565C109.844 73.2717 109.055 74.0209 108.112 74.525C95.225 81.4375 80.1062 87.1 72.625 100.331L64.625 114.494C64.148 115.335 63.4553 116.034 62.6181 116.519C61.781 117.003 60.8297 117.256 59.8625 117.25C39.9875 117.25 45.8812 88.3125 48.5812 76.8125C48.6898 76.3337 48.6886 75.8365 48.5775 75.3582C48.4664 74.88 48.2484 74.4331 47.9398 74.0512C47.6313 73.6692 47.2402 73.3622 46.796 73.1531C46.3518 72.944 45.8659 72.8382 45.375 72.8438Z" stroke="#464646" stroke-width="9.375" stroke-linecap="round" stroke-linejoin="round"/>
</svg>
