<svg width="150" height="150" viewBox="0 0 150 150" fill="none" xmlns="http://www.w3.org/2000/svg">
<path d="M25 43.75H125M62.5 68.75V106.25M87.5 68.75V106.25M31.25 43.75L37.5 118.75C37.5 122.065 38.817 125.245 41.1612 127.589C43.5054 129.933 46.6848 131.25 50 131.25H100C103.315 131.25 106.495 129.933 108.839 127.589C111.183 125.245 112.5 122.065 112.5 118.75L118.75 43.75M56.25 43.75V25C56.25 23.3424 56.9085 21.7527 58.0806 20.5806C59.2527 19.4085 60.8424 18.75 62.5 18.75H87.5C89.1576 18.75 90.7473 19.4085 91.9194 20.5806C93.0915 21.7527 93.75 23.3424 93.75 25V43.75" stroke="#464646" stroke-width="12.5" stroke-linecap="round" stroke-linejoin="round"/>
</svg>
