<svg width="126" height="126" viewBox="0 0 126 126" fill="none" xmlns="http://www.w3.org/2000/svg">
<path fill-rule="evenodd" clip-rule="evenodd" d="M0.5 30.8562C0.5 22.8053 3.69824 15.084 9.39114 9.39114C15.084 3.69824 22.8053 0.5 30.8562 0.5H63C64.6576 0.5 66.2473 1.15848 67.4194 2.33058C68.5915 3.50268 69.25 5.0924 69.25 6.75C69.25 8.4076 68.5915 9.99732 67.4194 11.1694C66.2473 12.3415 64.6576 13 63 13H30.8562C26.1205 13 21.5787 14.8813 18.23 18.23C14.8813 21.5787 13 26.1205 13 30.8562V95.1437C13 99.8795 14.8813 104.421 18.23 107.77C21.5787 111.119 26.1205 113 30.8562 113H95.1437C99.8795 113 104.421 111.119 107.77 107.77C111.119 104.421 113 99.8795 113 95.1437V63C113 61.3424 113.658 59.7527 114.831 58.5806C116.003 57.4085 117.592 56.75 119.25 56.75C120.908 56.75 122.497 57.4085 123.669 58.5806C124.842 59.7527 125.5 61.3424 125.5 63V95.1437C125.5 103.195 122.302 110.916 116.609 116.609C110.916 122.302 103.195 125.5 95.1437 125.5H30.8562C22.8053 125.5 15.084 122.302 9.39114 116.609C3.69824 110.916 0.5 103.195 0.5 95.1437V30.8562Z" fill="#464646"/>
<path fill-rule="evenodd" clip-rule="evenodd" d="M82.6063 70.6187L68.825 78.9312L62.3688 68.225L76.15 59.9125L76.1688 59.9C76.697 59.5819 77.184 59.1998 77.6188 58.7625L108.931 27.2875C109.245 26.9713 109.547 26.644 109.838 26.3062C111.906 23.8937 114.969 19.1187 111.263 15.3937C108.131 12.2437 103.644 15.2187 100.738 17.775C99.958 18.4623 99.2073 19.1816 98.4875 19.9312L98.275 20.1437L67.4 51.175C66.6669 51.9037 66.0924 52.7762 65.7125 53.7375L60.5625 66.6937C60.4649 66.9375 60.4465 67.2059 60.5099 67.4607C60.5734 67.7156 60.7156 67.944 60.9162 68.1135C61.1168 68.2829 61.3657 68.3849 61.6276 68.405C61.8894 68.425 62.1447 68.362 62.3688 68.225L68.825 78.9312C57.5438 85.7312 44.075 74.3062 48.95 62.0687L54.1063 49.1187C55.1102 46.5881 56.6202 44.2891 58.5438 42.3625L89.4125 11.325L89.5938 11.1437C90.5125 10.2062 93.6 7.04375 97.3438 4.76875C99.3875 3.5375 102.65 1.90625 106.681 1.59375C111.306 1.225 116.244 2.68125 120.119 6.575C123.085 9.50493 124.95 13.3678 125.4 17.5125C125.71 20.7431 125.216 24.0001 123.963 26.9937C122.15 31.475 119.125 34.7687 117.794 36.1L86.4813 67.575C85.3146 68.7458 84.0229 69.7604 82.6063 70.6187ZM110.438 26.0812C110.438 26.0812 110.413 26.1 110.356 26.1187L110.438 26.0812Z" fill="#464646"/>
</svg>
