<svg width="22" height="23" viewBox="0 0 22 23" fill="none" xmlns="http://www.w3.org/2000/svg">
<path d="M19.4792 11.5002C19.4806 12.6134 19.2624 13.716 18.8369 14.7448C18.4114 15.7735 17.787 16.7082 16.9996 17.4952C16.2119 18.2831 15.2765 18.9081 14.2471 19.3343C13.2176 19.7606 12.1143 19.9798 11.0001 19.9793C9.80087 19.982 8.61491 19.7288 7.5213 19.2368L3.97655 19.7612C3.80055 19.7899 3.6202 19.7752 3.45115 19.7184C3.28211 19.6616 3.12949 19.5644 3.00654 19.4353C2.8836 19.3061 2.79405 19.1488 2.74568 18.9772C2.6973 18.8056 2.69157 18.6247 2.72897 18.4503L3.22122 14.8542C2.75298 13.7984 2.51427 12.6552 2.52089 11.5002C2.51946 10.3869 2.73775 9.2843 3.16325 8.25556C3.58875 7.22682 4.21308 6.29217 5.00047 5.50516C5.78824 4.71721 6.72359 4.09225 7.75304 3.666C8.78248 3.23975 9.88585 3.02057 11.0001 3.021C13.2501 3.02115 15.4081 3.91466 16.9996 5.50516C17.7866 6.29247 18.4107 7.22718 18.8362 8.25585C19.2616 9.28452 19.4801 10.387 19.4792 11.5002Z" stroke="#464646" stroke-width="1.5" stroke-linecap="round" stroke-linejoin="round"/>
</svg>
